<svg width="70" height="70" viewBox="0 0 70 70" fill="none" xmlns="http://www.w3.org/2000/svg">
<path d="M17.4997 23.3334C17.4997 16.8876 22.7205 11.6667 29.1663 11.6667C35.6122 11.6667 40.833 16.8876 40.833 23.3334C40.833 29.7792 35.6122 35.0001 29.1663 35.0001C22.7205 35.0001 17.4997 29.7792 17.4997 23.3334ZM34.9997 53.0834C34.9997 50.2834 36.458 47.6584 38.4997 45.9084V45.2084C38.4997 44.0709 38.7038 42.9917 39.0247 41.9417C36.0205 41.2417 32.6955 40.8334 29.1663 40.8334C16.2747 40.8334 5.83301 46.0542 5.83301 52.5001V58.3334H34.9997V53.0834ZM64.1663 53.3751V63.5834C64.1663 65.3334 62.4163 67.0834 60.3747 67.0834H44.333C42.583 67.0834 40.833 65.3334 40.833 63.2918V53.0834C40.833 51.3334 42.583 49.5834 44.333 49.5834V45.2084C44.333 41.1251 48.4163 37.9167 52.4997 37.9167C56.583 37.9167 60.6663 41.1251 60.6663 45.2084V49.5834C62.4163 49.5834 64.1663 51.3334 64.1663 53.3751ZM56.8747 45.2084C56.8747 42.8751 54.833 41.4167 52.4997 41.4167C50.1663 41.4167 48.1247 42.8751 48.1247 45.2084V49.5834H56.8747V45.2084Z" fill="#F8AD1D"/>
</svg>
