<svg width="100" height="100" viewBox="0 0 100 100" fill="none" xmlns="http://www.w3.org/2000/svg">
<path d="M89.5833 37.4999H68.75L76.5 29.7499C70.4167 21.7916 60.7917 16.6666 50 16.6666C31.5833 16.6666 16.6667 31.5833 16.6667 49.9999C16.6667 57.6249 19.2083 64.5833 23.5 70.2083C28.5833 64.3749 38.125 60.4166 50 60.4166C61.875 60.4166 71.4583 64.3749 76.5 70.2083C80.7917 64.5833 83.3333 57.6249 83.3333 49.9999H91.6667C91.6667 72.9166 72.9167 91.6666 50 91.6666C27.0833 91.6666 8.33334 72.9166 8.33334 49.9999C8.33334 27.0833 27.0833 8.33325 50 8.33325C63.0833 8.33325 74.7917 14.3749 82.4167 23.8333L89.5833 16.6666V37.4999ZM50 29.1666C56.9167 29.1666 62.5 34.7499 62.5 41.6666C62.5 48.5833 56.9167 54.1666 50 54.1666C43.0833 54.1666 37.5 48.5833 37.5 41.6666C37.5 34.7499 43.0833 29.1666 50 29.1666Z" fill="#A5A0A0" fill-opacity="0.5"/>
</svg>
