<svg width="81" height="63" viewBox="0 0 81 63" fill="none" xmlns="http://www.w3.org/2000/svg">
<path d="M71.2125 32.8125L75.9375 36.5138L53.8988 53.8125L42.1875 44.625L46.9125 40.9237L53.8988 46.3838L71.2125 32.8125ZM33.75 44.625L43.875 52.5H10.125V47.25C10.125 41.4487 22.2075 36.75 37.125 36.75L43.5037 37.0387L33.75 44.625ZM37.125 10.5C40.7054 10.5 44.1392 11.6062 46.6709 13.5754C49.2027 15.5445 50.625 18.2152 50.625 21C50.625 23.7848 49.2027 26.4555 46.6709 28.4246C44.1392 30.3938 40.7054 31.5 37.125 31.5C33.5446 31.5 30.1108 30.3938 27.5791 28.4246C25.0473 26.4555 23.625 23.7848 23.625 21C23.625 18.2152 25.0473 15.5445 27.5791 13.5754C30.1108 11.6062 33.5446 10.5 37.125 10.5Z" fill="white"/>
</svg>
