<svg width="80" height="46" viewBox="0 0 80 46" fill="none" xmlns="http://www.w3.org/2000/svg">
<path d="M40.6161 17.7413L49.2994 17.8031C49.7688 17.8031 50.1795 17.3707 50.1795 16.8764V1.92664C50.1795 1.43243 49.7688 1 49.2994 1H30.6419C30.1726 1 29.7619 1.43243 29.7619 1.92664V16.8764C29.7619 17.3707 30.1726 17.8031 30.6419 17.8031H39.3253V17.7413H40.6161ZM33.5928 14V4.5H46.3138V14H33.5928Z" fill="#A5A0A0"/>
<path d="M26.3589 43.251V28.3012C26.3589 27.8069 25.9482 27.3745 25.4789 27.3745H6.88007C6.4107 27.3745 6 27.8069 6 28.3012V43.251C6 43.7452 6.4107 44.1776 6.88007 44.1776H25.5375C26.0069 44.1776 26.3589 43.7452 26.3589 43.251ZM22.5702 40.1776H9.84922V31.1776H22.5702V40.1776Z" fill="#A5A0A0"/>
<path d="M30.6419 27.3745C30.1726 27.3745 29.7619 27.8069 29.7619 28.3012V43.251C29.7619 43.7452 30.1726 44.1776 30.6419 44.1776H49.2994C49.7688 44.1776 50.1795 43.7452 50.1795 43.251V28.3012C50.1795 27.8069 49.7688 27.3745 49.2994 27.3745H30.6419ZM46.3138 40.1776H33.5928V31.1776H46.3138V40.1776Z" fill="#A5A0A0"/>
<path d="M54.4625 27.3745C53.9931 27.3745 53.5824 27.8069 53.5824 28.3012V43.251C53.5824 43.7452 53.9931 44.1776 54.4625 44.1776H73.1199C73.5893 44.1776 74 43.7452 74 43.251V28.3012C74 27.8069 73.5893 27.3745 73.1199 27.3745H54.4625ZM70.5322 40.1776H57.3363V31.1776H70.5322V40.1776Z" fill="#A5A0A0"/>
<path d="M14.5 27.3458H17.6164V24.4003H38.3105V27.3745H41.655V24.4003H61.3491V27.3745L64.5 27.3458V21.6147H41.655V17.3745H40.1373H38.3105V21.6147H14.5V27.3458Z" fill="#A5A0A0"/>
<path d="M38.5778 10.7338C39.1111 11.0691 39.6 11.2368 40.1333 11.2368C40.5333 11.2368 40.7556 11.111 40.7556 10.8595C40.7556 10.1889 38.2222 10.3146 38.2222 8.80565C38.2222 7.96733 38.9778 7.42242 40.1333 7.42242C40.9333 7.42242 41.4667 7.71583 41.9111 8.13499L41.2889 8.80565C40.8889 8.55415 40.5778 8.38649 40.0889 8.38649C39.6889 8.38649 39.4667 8.51224 39.4667 8.76373C39.4667 9.35056 42 9.26673 42 10.7757C42 11.5721 41.2889 12.2009 39.9556 12.2009C39.3333 12.2009 38.5333 11.9494 38 11.5302L38.5778 10.7338ZM39.6889 6.37451H40.5333V7.79966H39.6889V6.37451ZM40.5333 11.6979V13.3745H39.6889V11.6979H40.5333Z" fill="#A5A0A0"/>
</svg>
