<svg width="72" height="48" viewBox="0 0 72 48" fill="none" xmlns="http://www.w3.org/2000/svg">
<g clip-path="url(#clip0_81_107)">
<path d="M36.4479 16.7413L45.5907 16.8031C46.0849 16.8031 46.5174 16.3707 46.5174 15.8764V0.926641C46.5174 0.432432 46.0849 0 45.5907 0H25.9459C25.4517 0 25.0193 0.432432 25.0193 0.926641V15.8764C25.0193 16.3707 25.4517 16.8031 25.9459 16.8031H35.0888V16.7413H36.4479ZM28 14V2.5H43.5V14H28Z" fill="#A5A0A0"/>
<path d="M21.4363 47.0733V32.1235C21.4363 31.6293 21.0039 31.1969 20.5097 31.1969H0.926641C0.432433 31.1969 0 31.6293 0 32.1235V47.0733C0 47.5676 0.432433 48 0.926641 48H20.5714C21.0656 48 21.4363 47.5676 21.4363 47.0733ZM18.5 45H3V34H18.5V45Z" fill="#A5A0A0"/>
<path d="M25.9459 31.1969C25.4517 31.1969 25.0193 31.6293 25.0193 32.1235V47.0733C25.0193 47.5676 25.4517 48 25.9459 48H45.5907C46.0849 48 46.5174 47.5676 46.5174 47.0733V32.1235C46.5174 31.6293 46.0849 31.1969 45.5907 31.1969H25.9459ZM43.5 45H28V34H43.5V45Z" fill="#A5A0A0"/>
<path d="M51.027 31.1969C50.5328 31.1969 50.1003 31.6293 50.1003 32.1235V47.0733C50.1003 47.5676 50.5328 48 51.027 48H70.6718C71.166 48 71.5984 47.5676 71.5984 47.0733V32.1235C71.5984 31.6293 71.166 31.1969 70.6718 31.1969H51.027ZM69 45H53V34H69V45Z" fill="#A5A0A0"/>
<path d="M11.2433 29.9614H13.5V26H34.5V30H37V26H58V30L60.2935 29.9614V23.5985H37V16.5509H36.4479H34.5V23.5985H11.2433V29.9614Z" fill="#A5A0A0"/>
<path d="M33.7222 9.60479C34.3889 10.0359 35 10.2515 35.6667 10.2515C36.1667 10.2515 36.4444 10.0898 36.4444 9.76647C36.4444 8.90419 33.2778 9.06587 33.2778 7.12575C33.2778 6.0479 34.2222 5.34731 35.6667 5.34731C36.6667 5.34731 37.3333 5.72455 37.8889 6.26347L37.1111 7.12575C36.6111 6.8024 36.2222 6.58683 35.6111 6.58683C35.1111 6.58683 34.8333 6.7485 34.8333 7.07186C34.8333 7.82635 38 7.71856 38 9.65868C38 10.6826 37.1111 11.491 35.4444 11.491C34.6667 11.491 33.6667 11.1677 33 10.6287L33.7222 9.60479ZM35.1111 4H36.1667V5.83234H35.1111V4ZM36.1667 10.8443V13H35.1111V10.8443H36.1667Z" fill="#A5A0A0"/>
</g>
<defs>
<clipPath id="clip0_81_107">
<rect width="71.5985" height="48" fill="white"/>
</clipPath>
</defs>
</svg>
