<svg width="72" height="48" viewBox="0 0 72 48" fill="none" xmlns="http://www.w3.org/2000/svg">
<g clip-path="url(#clip0_81_98)">
<path d="M36.4479 16.7413L45.5907 16.8031C46.0849 16.8031 46.5174 16.3707 46.5174 15.8764V0.926641C46.5174 0.432432 46.0849 0 45.5907 0H25.9459C25.4517 0 25.0193 0.432432 25.0193 0.926641V15.8764C25.0193 16.3707 25.4517 16.8031 25.9459 16.8031H35.0888V16.7413H36.4479ZM26.8726 14.9498V1.85328H44.6641V14.9498H26.8726Z" fill="#A5A0A0"/>
<path d="M21.4363 47.0733V32.1235C21.4363 31.6293 21.0039 31.1969 20.5097 31.1969H0.926641C0.432432 31.1969 0 31.6293 0 32.1235V47.0733C0 47.5676 0.432432 48 0.926641 48H20.5714C21.0656 48 21.4363 47.5676 21.4363 47.0733ZM19.6448 46.1467H1.85328V33.0502H19.6448V46.1467Z" fill="#A5A0A0"/>
<path d="M25.9459 31.1969C25.4517 31.1969 25.0193 31.6293 25.0193 32.1235V47.0733C25.0193 47.5676 25.4517 48 25.9459 48H45.5907C46.0849 48 46.5174 47.5676 46.5174 47.0733V32.1235C46.5174 31.6293 46.0849 31.1969 45.5907 31.1969H25.9459ZM44.6641 46.1467H26.8726V33.0502H44.6641V46.1467Z" fill="#A5A0A0"/>
<path d="M51.027 31.1969C50.5328 31.1969 50.1003 31.6293 50.1003 32.1235V47.0733C50.1003 47.5676 50.5328 48 51.027 48H70.6718C71.166 48 71.5984 47.5676 71.5984 47.0733V32.1235C71.5984 31.6293 71.166 31.1969 70.6718 31.1969H51.027ZM69.7451 46.1467H51.9536V33.0502H69.7451V46.1467Z" fill="#A5A0A0"/>
<path d="M11.2433 29.9614H12.6024V24.9576H35.0888V29.9614H36.4479V24.9576H58.9962V29.9614H60.2935V23.5985H36.4479V16.8031V16.7413H35.0888V16.8031V23.5985H11.2433V29.9614Z" fill="#A5A0A0"/>
<path d="M33.7915 9.63711C34.5328 10.1313 35.2123 10.3784 35.9537 10.3784C36.5096 10.3784 36.8185 10.1931 36.8185 9.82244C36.8185 8.83402 33.2973 9.01935 33.2973 6.79541C33.2973 5.55989 34.3475 4.7568 35.9537 4.7568C37.0656 4.7568 37.8069 5.18924 38.4247 5.807L37.5598 6.79541C37.0038 6.42476 36.5714 6.17765 35.8919 6.17765C35.3359 6.17765 35.027 6.36298 35.027 6.73364C35.027 7.5985 38.5482 7.47495 38.5482 9.69889C38.5482 10.8726 37.5598 11.7993 35.7065 11.7993C34.8417 11.7993 33.7297 11.4286 32.9884 10.8109L33.7915 9.63711ZM35.3359 3.2124H36.5096V5.31279H35.3359V3.2124ZM36.5096 11.058V13.529H35.3359V11.058H36.5096Z" fill="#A5A0A0"/>
</g>
<defs>
<clipPath id="clip0_81_98">
<rect width="71.5985" height="48" fill="white"/>
</clipPath>
</defs>
</svg>
