<svg width="60" height="60" viewBox="0 0 60 60" fill="none" xmlns="http://www.w3.org/2000/svg">
<g clip-path="url(#clip0_261_2515)">
<path d="M25.0967 46.0294L26.5425 44.0807C27.4225 44.835 28.554 45.4008 29.8112 45.4008C31.257 45.4008 32.3256 44.835 32.3256 43.8293C32.3256 42.6349 31.4456 41.9435 28.3025 41.9435V39.7434C30.8798 39.7434 31.8856 38.989 31.8856 37.9833C31.8856 37.0404 31.1313 36.5375 29.9369 36.5375C28.8683 36.5375 28.0511 36.9775 27.1082 37.669L25.5367 35.7832C26.8568 34.7145 28.3025 34.0859 30.0626 34.0859C32.9542 34.0859 34.9657 35.406 34.9657 37.7318C34.9657 39.1147 34.0228 40.0577 32.4513 40.6863V40.7491C34.1485 41.1891 35.4057 42.2578 35.4057 43.955C35.4057 46.4065 32.9542 47.8523 30.1255 47.8523C27.7368 47.9152 26.1024 47.098 25.0967 46.0294Z" fill="#304991"/>
<path d="M16.9879 3.91309L29.2456 22.4568C29.2456 22.4568 23.2739 23.3997 19.8166 26.857L9.13037 11.7706C10.7019 10.1991 15.1021 5.17029 16.9879 3.91309Z" fill="#304991"/>
<path d="M44.018 3.91309L31.7603 22.4568C31.7603 22.4568 37.732 23.3997 41.1893 26.857L51.8755 11.7706C50.304 10.1991 45.9038 5.17029 44.018 3.91309Z" fill="#304991"/>
<path d="M19.5024 3.91309L25.7885 13.9707H35.2175L41.5035 3.91309H19.5024Z" fill="#304991"/>
<path d="M30.1885 25.9141C21.8281 25.9141 15.1021 32.6401 15.1021 41.0005C15.1021 49.3609 21.8281 56.0869 30.1885 56.0869C38.5489 56.0869 45.2749 49.3609 45.2749 41.0005C45.2749 32.6401 38.5489 25.9141 30.1885 25.9141ZM30.1885 51.0581C24.6568 51.0581 20.1309 46.5322 20.1309 41.0005C20.1309 35.4688 24.6568 30.9429 30.1885 30.9429C35.7202 30.9429 40.2461 35.4688 40.2461 41.0005C40.2461 46.5322 35.7202 51.0581 30.1885 51.0581Z" fill="#304991"/>
</g>
<defs>
<clipPath id="clip0_261_2515">
<rect width="42.7449" height="52.1739" fill="white" transform="translate(9.13037 3.91309)"/>
</clipPath>
</defs>
</svg>
