<svg width="46" height="46" viewBox="0 0 46 46" fill="none" xmlns="http://www.w3.org/2000/svg">
<g clip-path="url(#clip0_97_106)">
<path d="M19.241 35.2892L20.3494 33.7952C21.0241 34.3735 21.8916 34.8073 22.8554 34.8073C23.9639 34.8073 24.7831 34.3735 24.7831 33.6024C24.7831 32.6868 24.1084 32.1567 21.6988 32.1567V30.4699C23.6747 30.4699 24.4458 29.8916 24.4458 29.1205C24.4458 28.3976 23.8675 28.0121 22.9518 28.0121C22.1325 28.0121 21.506 28.3494 20.7831 28.8796L19.5783 27.4338C20.5904 26.6145 21.6988 26.1326 23.0482 26.1326C25.2651 26.1326 26.8072 27.1446 26.8072 28.9277C26.8072 29.988 26.0843 30.7109 24.8795 31.1928V31.241C26.1807 31.5784 27.1446 32.3976 27.1446 33.6988C27.1446 35.5784 25.2651 36.6868 23.0964 36.6868C21.2651 36.735 20.0121 36.1085 19.241 35.2892Z" fill="#F5B063"/>
<path d="M13.0241 3L22.4217 17.2169C22.4217 17.2169 17.8434 17.9398 15.1928 20.5904L7 9.0241C8.20482 7.81928 11.5783 3.96386 13.0241 3Z" fill="#F5B063"/>
<path d="M33.747 3L24.3494 17.2169C24.3494 17.2169 28.9277 17.9398 31.5783 20.5904L39.7711 9.0241C38.5663 7.81928 35.1928 3.96386 33.747 3Z" fill="#F5B063"/>
<path d="M14.9518 3L19.7711 10.7108H27L31.8193 3H14.9518Z" fill="#F5B063"/>
<path d="M23.1446 19.8674C16.7349 19.8674 11.5783 25.0241 11.5783 31.4337C11.5783 37.8433 16.7349 43 23.1446 43C29.5542 43 34.7108 37.8433 34.7108 31.4337C34.7108 25.0241 29.5542 19.8674 23.1446 19.8674ZM23.1446 39.1445C18.9036 39.1445 15.4337 35.6747 15.4337 31.4337C15.4337 27.1927 18.9036 23.7229 23.1446 23.7229C27.3855 23.7229 30.8554 27.1927 30.8554 31.4337C30.8554 35.6747 27.3855 39.1445 23.1446 39.1445Z" fill="#F5B063"/>
</g>
<defs>
<clipPath id="clip0_97_106">
<rect width="32.7711" height="40" fill="white" transform="translate(7 3)"/>
</clipPath>
</defs>
</svg>
