<svg width="100" height="100" viewBox="0 0 100 100" fill="none" xmlns="http://www.w3.org/2000/svg">
<path d="M62.5 54.1667H68.75V65.9167L78.9167 71.7917L75.7917 77.2084L62.5 69.5417V54.1667ZM79.1667 33.3334H20.8333V79.1667H40.2917C38.5 75.3751 37.5 71.1251 37.5 66.6667C37.5 58.9313 40.5729 51.5126 46.0427 46.0428C51.5125 40.573 58.9312 37.5001 66.6667 37.5001C71.125 37.5001 75.375 38.5001 79.1667 40.2917V33.3334ZM20.8333 87.5001C16.2083 87.5001 12.5 83.7501 12.5 79.1667V20.8334C12.5 16.2084 16.2083 12.5001 20.8333 12.5001H25V4.16675H33.3333V12.5001H66.6667V4.16675H75V12.5001H79.1667C81.3768 12.5001 83.4964 13.3781 85.0592 14.9409C86.622 16.5037 87.5 18.6233 87.5 20.8334V46.2501C92.6667 51.5001 95.8333 58.7084 95.8333 66.6667C95.8333 74.4022 92.7604 81.8209 87.2906 87.2907C81.8208 92.7605 74.4022 95.8334 66.6667 95.8334C58.7083 95.8334 51.5 92.6667 46.25 87.5001H20.8333ZM66.6667 46.4584C61.3071 46.4584 56.167 48.5875 52.3772 52.3773C48.5874 56.1671 46.4583 61.3072 46.4583 66.6667C46.4583 77.8334 55.5 86.8751 66.6667 86.8751C69.3205 86.8751 71.9483 86.3524 74.4001 85.3368C76.8519 84.3213 79.0796 82.8327 80.9561 80.9562C82.8326 79.0797 84.3212 76.8519 85.3367 74.4001C86.3523 71.9483 86.875 69.3205 86.875 66.6667C86.875 55.5001 77.8333 46.4584 66.6667 46.4584Z" fill="#A5A0A0" fill-opacity="0.5"/>
</svg>
