<svg width="50" height="50" viewBox="0 0 50 50" fill="none" xmlns="http://www.w3.org/2000/svg">
<path d="M39.5833 41.6667H10.4167V18.7501H39.5833V41.6667ZM33.3333 4.16675V8.33341H16.6667V4.16675H12.5V8.33341H10.4167C9.3116 8.33341 8.25179 8.7724 7.47039 9.5538C6.68899 10.3352 6.25 11.395 6.25 12.5001V41.6667C6.25 42.7718 6.68899 43.8316 7.47039 44.613C8.25179 45.3944 9.3116 45.8334 10.4167 45.8334H39.5833C40.6884 45.8334 41.7482 45.3944 42.5296 44.613C43.311 43.8316 43.75 42.7718 43.75 41.6667V12.5001C43.75 11.395 43.311 10.3352 42.5296 9.5538C41.7482 8.7724 40.6884 8.33341 39.5833 8.33341H37.5V4.16675H33.3333ZM22.6667 27.0834H15.1458L21.2292 31.4792L18.9167 38.6667L25 34.2292L31.0833 38.6667L28.75 31.5001L34.8333 27.0834H27.3333L25 19.9167L22.6667 27.0834Z" fill="#48A5C1"/>
</svg>
