<svg width="80" height="80" viewBox="0 0 80 80" fill="none" xmlns="http://www.w3.org/2000/svg">
<path d="M63.3333 66.6667H16.6667V30.0001H63.3333V66.6667ZM53.3333 6.66675V13.3334H26.6667V6.66675H20V13.3334H16.6667C14.8986 13.3334 13.2029 14.0358 11.9526 15.286C10.7024 16.5363 10 18.232 10 20.0001V66.6667C10 68.4349 10.7024 70.1305 11.9526 71.3808C13.2029 72.631 14.8986 73.3334 16.6667 73.3334H63.3333C65.1014 73.3334 66.7971 72.631 68.0474 71.3808C69.2976 70.1305 70 68.4349 70 66.6667V20.0001C70 18.232 69.2976 16.5363 68.0474 15.286C66.7971 14.0358 65.1014 13.3334 63.3333 13.3334H60V6.66675H53.3333ZM36.2667 43.3334H24.2333L33.9667 50.3667L30.2667 61.8667L40 54.7667L49.7333 61.8667L46 50.4001L55.7333 43.3334H43.7333L40 31.8667L36.2667 43.3334Z" fill="white"/>
</svg>
