<svg width="70" height="70" viewBox="0 0 70 70" fill="none" xmlns="http://www.w3.org/2000/svg">
<path d="M43.75 37.9167H48.125V46.1417L55.2417 50.2542L53.0542 54.0459L43.75 48.6792V37.9167ZM55.4167 23.3334H14.5833V55.4167H28.2042C26.95 52.7626 26.25 49.7876 26.25 46.6667C26.25 41.2519 28.401 36.0589 32.2299 32.23C36.0588 28.4011 41.2518 26.2501 46.6667 26.2501C49.7875 26.2501 52.7625 26.9501 55.4167 28.2042V23.3334ZM14.5833 61.2501C11.3458 61.2501 8.75 58.6251 8.75 55.4167V14.5834C8.75 11.3459 11.3458 8.75008 14.5833 8.75008H17.5V2.91675H23.3333V8.75008H46.6667V2.91675H52.5V8.75008H55.4167C56.9638 8.75008 58.4475 9.36466 59.5415 10.4586C60.6354 11.5526 61.25 13.0363 61.25 14.5834V32.3751C64.8667 36.0501 67.0833 41.0959 67.0833 46.6667C67.0833 52.0816 64.9323 57.2746 61.1034 61.1035C57.2746 64.9324 52.0815 67.0834 46.6667 67.0834C41.0958 67.0834 36.05 64.8667 32.375 61.2501H14.5833ZM46.6667 32.5209C42.915 32.5209 39.3169 34.0113 36.6641 36.6641C34.0112 39.317 32.5208 42.915 32.5208 46.6667C32.5208 54.4834 38.85 60.8126 46.6667 60.8126C48.5243 60.8126 50.3638 60.4467 52.08 59.7358C53.7963 59.0249 55.3557 57.9829 56.6693 56.6694C57.9828 55.3558 59.0248 53.7964 59.7357 52.0801C60.4466 50.3639 60.8125 48.5244 60.8125 46.6667C60.8125 38.8501 54.4833 32.5209 46.6667 32.5209Z" fill="#F8AD1D" fill-opacity="0.9"/>
</svg>
