<svg width="60" height="60" viewBox="0 0 60 60" fill="none" xmlns="http://www.w3.org/2000/svg">
<path d="M37.5 32.5H41.25V39.55L47.35 43.075L45.475 46.325L37.5 41.725V32.5ZM47.5 20H12.5V47.5H24.175C23.1 45.225 22.5 42.675 22.5 40C22.5 35.3587 24.3437 30.9075 27.6256 27.6256C30.9075 24.3437 35.3587 22.5 40 22.5C42.675 22.5 45.225 23.1 47.5 24.175V20ZM12.5 52.5C9.725 52.5 7.5 50.25 7.5 47.5V12.5C7.5 9.725 9.725 7.5 12.5 7.5H15V2.5H20V7.5H40V2.5H45V7.5H47.5C48.8261 7.5 50.0979 8.02678 51.0355 8.96447C51.9732 9.90215 52.5 11.1739 52.5 12.5V27.75C55.6 30.9 57.5 35.225 57.5 40C57.5 44.6413 55.6563 49.0925 52.3744 52.3744C49.0925 55.6563 44.6413 57.5 40 57.5C35.225 57.5 30.9 55.6 27.75 52.5H12.5ZM40 27.875C36.7843 27.875 33.7002 29.1525 31.4263 31.4263C29.1525 33.7002 27.875 36.7843 27.875 40C27.875 46.7 33.3 52.125 40 52.125C41.5923 52.125 43.169 51.8114 44.64 51.202C46.1111 50.5927 47.4478 49.6996 48.5737 48.5737C49.6996 47.4478 50.5927 46.1111 51.202 44.64C51.8114 43.169 52.125 41.5923 52.125 40C52.125 33.3 46.7 27.875 40 27.875Z" fill="#15627D" fill-opacity="0.5"/>
</svg>
