<svg width="47" height="47" viewBox="0 0 47 47" fill="none" xmlns="http://www.w3.org/2000/svg">
<path d="M10.2176 11.859H44.7176V34.859H10.2176V11.859ZM27.4676 17.609C28.9926 17.609 30.4551 18.2148 31.5334 19.2931C32.6118 20.3715 33.2176 21.834 33.2176 23.359C33.2176 24.884 32.6118 26.3465 31.5334 27.4249C30.4551 28.5032 28.9926 29.109 27.4676 29.109C25.9426 29.109 24.48 28.5032 23.4017 27.4249C22.3234 26.3465 21.7176 24.884 21.7176 23.359C21.7176 21.834 22.3234 20.3715 23.4017 19.2931C24.48 18.2148 25.9426 17.609 27.4676 17.609V17.609ZM17.8842 15.6923C17.8842 16.709 17.4804 17.684 16.7615 18.4029C16.0426 19.1218 15.0676 19.5257 14.0509 19.5257V27.1923C15.0676 27.1923 16.0426 27.5962 16.7615 28.3151C17.4804 29.034 17.8842 30.009 17.8842 31.0257H37.0509C37.0509 30.009 37.4548 29.034 38.1737 28.3151C38.8926 27.5962 39.8676 27.1923 40.8842 27.1923V19.5257C39.8676 19.5257 38.8926 19.1218 38.1737 18.4029C37.4548 17.684 37.0509 16.709 37.0509 15.6923H17.8842ZM2.5509 19.5257H6.38424V38.6923H37.0509V42.5257H2.5509V19.5257Z" fill="#A5A0A0"/>
</svg>
