<svg width="78" height="104" viewBox="0 0 78 104" fill="none" xmlns="http://www.w3.org/2000/svg">
<g clip-path="url(#clip0_71_534)">
<path d="M68.0484 104C64.5997 100.518 61.1509 96.5374 57.2095 93.0548C57.7022 92.5573 58.1948 92.0598 59.1802 92.5573C60.1656 93.0548 61.6436 93.0548 63.1216 93.0548C65.585 93.5523 68.0484 92.0598 68.5411 89.5722C68.5411 88.5772 69.0338 87.5822 69.0338 86.5872L69.5265 87.0847C71.9899 89.5722 74.4533 92.0598 76.424 94.0498C76.9167 94.5474 77.4094 95.0449 76.9167 96.0399C76.9167 97.0349 75.9313 97.0349 75.4386 97.0349C73.9606 97.0349 72.9752 97.5324 71.4972 97.5324C71.0045 97.5324 70.5118 98.0299 70.5118 98.5275C70.5118 99.5225 70.0192 101.015 70.0192 102.01C70.0192 103.005 69.5265 103.503 69.0338 104C69.0338 104 68.5411 104 68.0484 104Z" fill="white" fill-opacity="0.4"/>
<path d="M34.0535 104C33.0681 103.503 33.0681 103.005 33.0681 102.01C33.0681 101.015 32.5754 99.5224 32.5754 98.5274C32.5754 98.0299 32.0828 97.5324 31.5901 97.5324C30.112 97.5324 28.634 97.0349 27.6486 96.5374C26.1706 96.0398 25.6779 95.0448 26.6633 94.0498C29.1267 91.5622 31.5901 89.0747 34.0535 86.5871C34.0535 86.5871 34.0535 86.5871 34.5462 86.0896C34.5462 87.0846 35.0388 87.5821 35.0388 88.5772C35.5315 91.5622 37.9949 93.0548 40.4583 92.5573C41.4437 92.5573 42.9217 92.0598 43.9071 92.0598C44.8924 92.0598 45.3851 92.0597 45.8778 93.0548C42.429 96.5374 38.9803 100.02 36.0242 103.503L35.5315 104C34.5462 104 34.5462 104 34.0535 104Z" fill="white" fill-opacity="0.4"/>
<path d="M70.5118 51.7612C70.0191 49.2736 68.5411 47.7811 66.0777 47.2836C66.0777 47.2836 65.585 46.7861 65.585 46.2886C65.585 43.801 65.585 40.8159 65.585 38.3284C65.585 29.3731 65.585 20.9154 65.585 11.9602C65.585 9.97015 65.0923 8.97512 62.6289 8.97512C45.8778 8.97512 29.1267 8.97512 12.3756 8.97512C10.4048 8.97512 9.41948 9.47264 9.41948 11.9602C9.41948 34.3483 9.41948 57.2338 9.41948 79.6219C9.41948 81.6119 9.91216 82.607 12.3756 82.607C16.8097 82.607 21.2438 82.607 25.6779 82.607C26.6633 82.607 27.156 82.607 28.1413 83.1045C28.634 83.602 29.6194 83.602 30.112 84.0995C29.1267 85.0945 28.1413 86.0895 26.6633 87.5821C26.6633 87.5821 26.1706 87.5821 25.6779 87.5821C20.7511 87.5821 16.317 87.5821 11.3902 87.5821C6.95608 87.5821 4 84.597 4 79.6219C4 71.6617 4 63.204 4 55.2438C4 40.8159 4 25.8905 4 11.4627C4 8.47761 4.98536 5.99005 7.94144 4.49751C9.41948 4.49751 10.8975 4 11.8829 4C29.1267 4 46.3705 4 63.1216 4C67.5557 4 70.5118 6.98507 70.5118 11.4627C71.0045 24.8955 70.5118 38.3284 70.5118 51.7612Z" fill="white" fill-opacity="0.4"/>
<path d="M63.6143 91.0648C62.1363 91.0648 61.1509 90.5673 59.6729 90.5673C58.6875 90.0698 57.7022 90.5673 56.7168 91.5624C55.7314 92.5574 54.7461 93.5524 54.2534 94.5474C52.7754 96.04 51.2973 96.04 49.8193 94.5474C48.8339 93.5524 47.8486 92.5574 47.3559 92.0599C46.3705 91.0648 45.3852 90.5673 43.9071 91.0648C42.9218 91.5624 41.4437 91.5624 40.4584 91.5624C38.4876 92.0599 37.0096 91.0648 36.5169 88.5773C36.5169 87.0847 36.0242 86.0897 36.0242 84.5972C36.0242 83.6022 35.5316 82.6071 34.0535 82.1096C33.0682 81.6121 31.5901 81.1146 30.6048 80.1196C28.634 79.1245 28.1414 77.632 29.1267 75.642C29.6194 74.6469 30.1121 73.1544 31.0974 72.1594C31.5901 71.1643 31.5901 70.1693 31.0974 69.1743C30.6048 68.1793 30.1121 66.6867 29.1267 65.6917C28.1414 63.7017 28.634 62.2091 30.6048 61.2141C31.5901 60.7166 33.0682 60.2191 34.0535 59.2241C35.0389 58.7265 35.5316 57.7315 36.0242 56.7365C36.0242 55.7415 36.5169 54.2489 36.5169 53.2539C37.0096 51.2639 37.995 50.2688 39.9657 50.2688C40.951 50.2688 42.4291 50.7663 43.4144 50.7663C44.8925 51.2639 45.8778 50.7663 46.8632 49.7713C47.8486 49.2738 48.8339 48.2788 49.3266 47.7813C50.8046 46.2887 52.2827 46.2887 53.7607 47.7813C54.7461 48.7763 55.7314 49.7713 56.2241 50.2688C57.2095 51.2639 58.1948 51.7614 59.6729 51.2639C60.6582 51.2639 62.1363 50.7663 63.1216 50.7663C65.0924 50.2688 66.5704 51.2639 66.5704 53.2539C66.5704 54.7464 67.0631 55.7415 67.0631 57.234C67.0631 58.229 68.0485 59.224 69.0338 59.7216C70.0192 60.2191 71.4972 60.7166 72.4826 61.7116C73.9606 62.7066 74.4533 64.1992 73.9606 65.6917C73.4679 66.6867 72.9753 67.6818 72.4826 69.1743C71.9899 70.1693 71.9899 71.6619 72.4826 72.6569C72.9753 73.6519 73.4679 74.6469 73.9606 75.642C74.946 77.632 74.4533 79.1245 72.4826 80.1196C71.4972 80.6171 70.0192 81.1146 69.0338 82.1096C68.0485 82.6071 67.5558 83.6022 67.0631 84.5972C67.0631 86.0897 66.5704 87.0847 66.5704 88.5773C66.5704 90.0698 65.585 91.0648 63.6143 91.0648ZM51.79 87.5823C61.1509 87.5823 68.5411 80.1196 69.0338 70.1693C69.0338 60.7166 61.1509 52.7564 51.79 52.7564C42.4291 52.7564 35.0389 60.2191 34.5462 70.1693C34.5462 79.6221 42.4291 87.5823 51.79 87.5823Z" fill="white" fill-opacity="0.4"/>
<path d="M37.5023 20.9153C43.4144 20.9153 49.8193 20.9153 55.7314 20.9153C56.2241 20.9153 57.2095 21.4128 57.7022 21.9103C58.6875 22.4078 58.6875 22.9053 58.1948 23.9004C57.7022 24.8954 57.2095 25.3929 56.2241 25.3929C55.7314 25.3929 55.7314 25.3929 55.2388 25.3929C42.9217 25.3929 31.0974 25.3929 18.7804 25.3929C17.3024 25.3929 16.317 24.3979 15.8243 23.4028C15.8243 21.9103 16.8097 20.9153 18.2877 20.9153C21.7365 20.9153 25.1853 20.9153 28.634 20.9153C32.0828 20.9153 35.0389 20.9153 37.5023 20.9153Z" fill="white" fill-opacity="0.4"/>
<path d="M37.5023 38.3284C31.5901 38.3284 25.1853 38.3284 19.2731 38.3284C17.7951 38.3284 16.8097 37.3334 16.8097 36.3383C16.8097 34.8458 17.7951 33.8508 18.7804 33.3533C19.2731 33.3533 19.2731 33.3533 19.7658 33.3533C31.5901 33.3533 43.9071 33.3533 55.7314 33.3533C56.7168 33.3533 57.7021 33.3533 58.1948 34.3483C58.6875 34.8458 58.6875 35.8408 58.1948 36.3383C57.7021 37.3334 57.2095 37.8309 55.7314 37.8309C53.7607 37.8309 51.2973 37.8309 49.3266 37.8309C45.8778 38.3284 41.4437 38.3284 37.5023 38.3284Z" fill="white" fill-opacity="0.4"/>
<path d="M51.7899 55.7412C59.6728 55.7412 66.5703 62.2089 66.0776 70.6666C66.0776 78.6268 59.6728 85.0944 51.2972 85.0944C43.4143 85.0944 36.5168 78.6268 37.0095 70.1691C37.0095 62.2089 43.4143 55.7412 51.7899 55.7412Z" fill="white" fill-opacity="0.4"/>
</g>
<defs>
<clipPath id="clip0_71_534">
<rect width="78" height="104" fill="white"/>
</clipPath>
</defs>
</svg>
