<svg width="96" height="106" viewBox="0 0 96 106" fill="none" xmlns="http://www.w3.org/2000/svg">
<g opacity="0.7">
<path d="M72 83.9168H24V77.7334C24 68.9001 40 64.0418 48 64.0418C56 64.0418 72 68.9001 72 77.7334V83.9168ZM48 30.9167C51.1826 30.9167 54.2348 32.3127 56.4853 34.7976C58.7357 37.2824 60 40.6526 60 44.1668C60 47.6809 58.7357 51.0511 56.4853 53.5359C54.2348 56.0208 51.1826 57.4168 48 57.4168C44.8174 57.4168 41.7652 56.0208 39.5147 53.5359C37.2643 51.0511 36 47.6809 36 44.1668C36 40.6526 37.2643 37.2824 39.5147 34.7976C41.7652 32.3127 44.8174 30.9167 48 30.9167ZM48 13.2501C49.0609 13.2501 50.0783 13.7154 50.8284 14.5437C51.5786 15.372 52 16.4954 52 17.6667C52 18.8381 51.5786 19.9615 50.8284 20.7898C50.0783 21.6181 49.0609 22.0834 48 22.0834C46.9391 22.0834 45.9217 21.6181 45.1716 20.7898C44.4214 19.9615 44 18.8381 44 17.6667C44 16.4954 44.4214 15.372 45.1716 14.5437C45.9217 13.7154 46.9391 13.2501 48 13.2501ZM76 13.2501H59.28C57.6 8.12675 53.2 4.41675 48 4.41675C42.8 4.41675 38.4 8.12675 36.72 13.2501H20C17.8783 13.2501 15.8434 14.1807 14.3431 15.8373C12.8429 17.4939 12 19.7407 12 22.0834V83.9168C12 86.2595 12.8429 88.5063 14.3431 90.1629C15.8434 91.8194 17.8783 92.7501 20 92.7501H76C78.1217 92.7501 80.1566 91.8194 81.6569 90.1629C83.1571 88.5063 84 86.2595 84 83.9168V22.0834C84 19.7407 83.1571 17.4939 81.6569 15.8373C80.1566 14.1807 78.1217 13.2501 76 13.2501Z" fill="white" fill-opacity="0.4"/>
</g>
</svg>
