<svg width="100" height="100" viewBox="0 0 100 100" fill="none" xmlns="http://www.w3.org/2000/svg">
<path d="M79.1667 12.5001H61.75C60 7.66675 55.4167 4.16675 50 4.16675C44.5833 4.16675 40 7.66675 38.25 12.5001H20.8333C18.6232 12.5001 16.5036 13.3781 14.9408 14.9409C13.378 16.5037 12.5 18.6233 12.5 20.8334V79.1668C12.5 81.3769 13.378 83.4965 14.9408 85.0593C16.5036 86.6221 18.6232 87.5001 20.8333 87.5001H79.1667C81.3768 87.5001 83.4964 86.6221 85.0592 85.0593C86.622 83.4965 87.5 81.3769 87.5 79.1668V20.8334C87.5 18.6233 86.622 16.5037 85.0592 14.9409C83.4964 13.3781 81.3768 12.5001 79.1667 12.5001ZM50 12.5001C51.1051 12.5001 52.1649 12.9391 52.9463 13.7205C53.7277 14.5019 54.1667 15.5617 54.1667 16.6667C54.1667 17.7718 53.7277 18.8316 52.9463 19.613C52.1649 20.3944 51.1051 20.8334 50 20.8334C48.8949 20.8334 47.8351 20.3944 47.0537 19.613C46.2723 18.8316 45.8333 17.7718 45.8333 16.6667C45.8333 15.5617 46.2723 14.5019 47.0537 13.7205C47.8351 12.9391 48.8949 12.5001 50 12.5001ZM29.1667 29.1667H70.8333V20.8334H79.1667V79.1668H20.8333V20.8334H29.1667V29.1667ZM31.25 56.2501L37.5 50.0001L45.8333 58.3334L64.5833 39.5834L70.8333 45.8334L45.8333 70.8334L31.25 56.2501Z" fill="#A5A0A0" fill-opacity="0.5"/>
</svg>
