<svg width="53" height="55" viewBox="0 0 53 55" fill="none" xmlns="http://www.w3.org/2000/svg">
<path fill-rule="evenodd" clip-rule="evenodd" d="M26.0865 9.16671C16.4817 9.16671 8.69543 17.3748 8.69543 27.5C8.69543 37.6253 16.4817 45.8334 26.0865 45.8334C35.6914 45.8334 43.4776 37.6253 43.4776 27.5C43.4776 17.3748 35.6914 9.16671 26.0865 9.16671ZM4.34766 27.5C4.34766 14.8435 14.0805 4.58337 26.0865 4.58337C38.0926 4.58337 47.8254 14.8435 47.8254 27.5C47.8254 40.1566 38.0926 50.4167 26.0865 50.4167C14.0805 50.4167 4.34766 40.1566 4.34766 27.5ZM26.0865 13.75C27.2871 13.75 28.2604 14.7761 28.2604 16.0417V25.2084H36.956C38.1566 25.2084 39.1299 26.2344 39.1299 27.5C39.1299 28.7657 38.1566 29.7917 36.956 29.7917H26.0865C24.8859 29.7917 23.9127 28.7657 23.9127 27.5V16.0417C23.9127 14.7761 24.8859 13.75 26.0865 13.75Z" fill="#6A80AE" fill-opacity="0.8"/>
</svg>
