<svg width="43" height="43" viewBox="0 0 43 43" fill="none" xmlns="http://www.w3.org/2000/svg">
<path fill-rule="evenodd" clip-rule="evenodd" d="M21.5 7.16659C13.5839 7.16659 7.16668 13.5838 7.16668 21.4999C7.16668 29.416 13.5839 35.8333 21.5 35.8333C29.4161 35.8333 35.8333 29.416 35.8333 21.4999C35.8333 13.5838 29.4161 7.16659 21.5 7.16659ZM3.58334 21.4999C3.58334 11.6048 11.6049 3.58325 21.5 3.58325C31.3951 3.58325 39.4167 11.6048 39.4167 21.4999C39.4167 31.395 31.3951 39.4166 21.5 39.4166C11.6049 39.4166 3.58334 31.395 3.58334 21.4999ZM21.5 10.7499C22.4895 10.7499 23.2917 11.5521 23.2917 12.5416V19.7083H30.4583C31.4479 19.7083 32.25 20.5104 32.25 21.4999C32.25 22.4894 31.4479 23.2916 30.4583 23.2916H21.5C20.5105 23.2916 19.7083 22.4894 19.7083 21.4999V12.5416C19.7083 11.5521 20.5105 10.7499 21.5 10.7499Z" fill="#A5A0A0" fill-opacity="0.5"/>
</svg>
