<svg width="55" height="55" viewBox="0 0 55 55" fill="none" xmlns="http://www.w3.org/2000/svg">
<path d="M32.0832 4.58337L45.8332 18.3334V45.8334C45.8332 47.049 45.3503 48.2147 44.4907 49.0743C43.6312 49.9338 42.4654 50.4167 41.2498 50.4167H13.7498C12.5343 50.4167 11.3685 49.9338 10.5089 49.0743C9.64939 48.2147 9.1665 47.049 9.1665 45.8334V9.16671C9.1665 7.95113 9.64939 6.78534 10.5089 5.9258C11.3685 5.06626 12.5343 4.58337 13.7498 4.58337H32.0832ZM41.2498 45.8334V20.625H29.7915V9.16671H13.7498V45.8334H41.2498ZM25.6665 42.3042L19.3644 35.4292L22.0228 32.7709L25.6665 36.3917L33.8707 28.1875L36.5519 31.4188L25.6665 42.3042Z" fill="#6A80AE" fill-opacity="0.8"/>
</svg>
