<svg width="47" height="47" viewBox="0 0 47 47" fill="none" xmlns="http://www.w3.org/2000/svg">
<path d="M27.8267 4.20789H12.4934C10.385 4.20789 8.66003 5.93289 8.66003 8.04122V38.7079C8.66003 39.4937 8.89003 40.2412 9.3117 40.8546C9.44587 41.0654 9.61837 41.2571 9.79087 41.4104C10.4809 42.1196 11.4392 42.5412 12.4934 42.5412H26.9259C25.91 41.4296 25.1625 40.1454 24.6642 38.7079H12.4934V8.04122H25.91V17.6246H35.4934V23.3746C36.835 23.3746 38.1192 23.6046 39.3267 24.0262V15.7079L27.8267 4.20789Z" fill="#A5A0A0"/>
<path d="M36.4517 27.2079L45.0767 36.7912L39.3267 36.7912L39.3267 44.4579L33.5767 44.4579L33.5767 36.7912L27.8267 36.7912L31.2767 32.9579L36.4517 27.2079Z" fill="#A5A0A0"/>
</svg>
