<svg width="55" height="55" viewBox="0 0 55 55" fill="none" xmlns="http://www.w3.org/2000/svg">
<path d="M32.0832 4.58337H13.7498C11.229 4.58337 9.1665 6.64587 9.1665 9.16671V45.8334C9.1665 46.773 9.4415 47.6667 9.94567 48.4C10.1061 48.6521 10.3123 48.8813 10.5186 49.0646C11.3436 49.9125 12.4894 50.4167 13.7498 50.4167H31.0061C29.7915 49.0875 28.8978 47.5521 28.3019 45.8334H13.7498V9.16671H29.7915V20.625H41.2498V27.5C42.854 27.5 44.3894 27.775 45.8332 28.2792V18.3334L32.0832 4.58337Z" fill="#6A80AE" fill-opacity="0.8"/>
<path d="M42.396 32.0834L52.7085 43.5417L45.8335 43.5417L45.8335 52.7084L38.9585 52.7084L38.9585 43.5417L32.0835 43.5417L36.2085 38.9584L42.396 32.0834Z" fill="#6A80AE" fill-opacity="0.8"/>
</svg>
