<svg width="55" height="55" viewBox="0 0 55 55" fill="none" xmlns="http://www.w3.org/2000/svg">
<path d="M32.0832 4.58337H13.7498C11.229 4.58337 9.1665 6.64587 9.1665 9.16671V45.8334C9.1665 46.773 9.4415 47.6667 9.94567 48.4C10.1061 48.6521 10.3123 48.8813 10.5186 49.0646C11.3436 49.9125 12.4894 50.4167 13.7498 50.4167H31.0061C29.7915 49.0875 28.8978 47.5521 28.3019 45.8334H13.7498V9.16671H29.7915V20.625H41.2498V27.5C42.854 27.5 44.3894 27.775 45.8332 28.2792V18.3334L32.0832 4.58337Z" fill="#6A80AE" fill-opacity="0.8"/>
<path d="M46.8 48.8C45.6345 48.8 44.7 49.7345 44.7 50.9C44.7 51.457 44.9212 51.9911 45.3151 52.3849C45.7089 52.7787 46.243 53 46.8 53C47.357 53 47.8911 52.7787 48.2849 52.3849C48.6787 51.9911 48.9 51.457 48.9 50.9C48.9 49.7345 47.955 48.8 46.8 48.8ZM30 32V34.1H32.1L35.88 42.0695L34.452 44.642C34.2945 44.936 34.2 45.2825 34.2 45.65C34.2 46.207 34.4212 46.7411 34.8151 47.1349C35.2089 47.5287 35.743 47.75 36.3 47.75H48.9V45.65H36.741C36.6714 45.65 36.6046 45.6223 36.5554 45.5731C36.5062 45.5239 36.4785 45.4571 36.4785 45.3875C36.4785 45.335 36.489 45.293 36.51 45.2615L37.455 43.55H45.2775C46.065 43.55 46.758 43.109 47.115 42.4685L50.874 35.675C50.9475 35.507 51 35.3285 51 35.15C51 34.8715 50.8894 34.6045 50.6925 34.4075C50.4955 34.2106 50.2285 34.1 49.95 34.1H34.4205L33.4335 32H30ZM36.3 48.8C35.1345 48.8 34.2 49.7345 34.2 50.9C34.2 51.457 34.4212 51.9911 34.8151 52.3849C35.2089 52.7787 35.743 53 36.3 53C36.857 53 37.3911 52.7787 37.7849 52.3849C38.1787 51.9911 38.4 51.457 38.4 50.9C38.4 49.7345 37.455 48.8 36.3 48.8Z" fill="#6A80AE" fill-opacity="0.8"/>
</svg>
