<svg width="60" height="60" viewBox="0 0 60 60" fill="none" xmlns="http://www.w3.org/2000/svg">
<path d="M39.6499 10.975V48.475C39.6499 52.65 42.4999 55 45.6249 55C48.4749 55 51.5999 53.025 51.5999 48.475V11.25C51.5999 7.4 48.7499 5 45.6249 5C42.4999 5 39.6499 7.65 39.6499 10.975ZM24.0249 30V48.475C24.0249 52.675 26.9249 55 29.9999 55C32.8499 55 35.9749 53.025 35.9749 48.475V30.275C35.9749 26.425 33.1249 24.025 29.9999 24.025C26.8749 24.025 24.0249 26.675 24.0249 30ZM14.3749 43.075C17.6749 43.075 20.3499 45.75 20.3499 49.025C20.3499 52.325 17.6749 55 14.3749 55C11.0749 55 8.3999 52.325 8.3999 49.025C8.3999 45.75 11.0749 43.075 14.3749 43.075Z" fill="#30498D"/>
</svg>
