<svg width="60" height="60" viewBox="0 0 60 60" fill="none" xmlns="http://www.w3.org/2000/svg">
<path d="M35 41.85L28 49.5H7V45C7 39.475 15.95 35 27 35H28.5L35 41.85ZM27 10C29.6522 10 32.1957 11.0536 34.0711 12.9289C35.9464 14.8043 37 17.3478 37 20C37 22.6522 35.9464 25.1957 34.0711 27.0711C32.1957 28.9464 29.6522 30 27 30C24.3478 30 21.8043 28.9464 19.9289 27.0711C18.0536 25.1957 17 22.6522 17 20C17 17.3478 18.0536 14.8043 19.9289 12.9289C21.8043 11.0536 24.3478 10 27 10Z" fill="#304991"/>
<path d="M43.85 38.325L49.15 33L52.7 36.55L47.375 41.85L52.7 47.15L49.15 50.7L43.85 45.375L38.55 50.7L35 47.15L40.325 41.85L35 36.55L38.55 33L43.85 38.325Z" fill="#FBAF17"/>
</svg>
