<svg width="60" height="61" viewBox="0 0 60 61" fill="none" xmlns="http://www.w3.org/2000/svg">
<path d="M50 42.9619C51.3261 42.9619 52.5979 42.4294 53.5355 41.4815C54.4732 40.5337 55 39.2481 55 37.9076V10.1087C55 8.76817 54.4732 7.48258 53.5355 6.53471C52.5979 5.58683 51.3261 5.05432 50 5.05432H23.65C24.525 6.5959 25 8.33965 25 10.1087H50V37.9076H27.5V42.9619M37.5 17.6902V22.7445H22.5V55.5978H17.5V40.4348H12.5V55.5978H7.5V35.3804H3.75V22.7445C3.75 21.404 4.27678 20.1184 5.21447 19.1706C6.15215 18.2227 7.42392 17.6902 8.75 17.6902H37.5ZM20 10.1087C20 11.4492 19.4732 12.7348 18.5355 13.6826C17.5979 14.6305 16.3261 15.163 15 15.163C13.6739 15.163 12.4021 14.6305 11.4645 13.6826C10.5268 12.7348 10 11.4492 10 10.1087C10 8.76817 10.5268 7.48258 11.4645 6.53471C12.4021 5.58683 13.6739 5.05432 15 5.05432C16.3261 5.05432 17.5979 5.58683 18.5355 6.53471C19.4732 7.48258 20 8.76817 20 10.1087Z" fill="#6A80AE" fill-opacity="0.8"/>
</svg>
