<svg width="54" height="54" viewBox="0 0 54 54" fill="none" xmlns="http://www.w3.org/2000/svg">
<path d="M31.5 4.5L45 18V45C45 46.1935 44.5259 47.3381 43.682 48.182C42.8381 49.0259 41.6935 49.5 40.5 49.5H13.5C12.3065 49.5 11.1619 49.0259 10.318 48.182C9.47411 47.3381 9 46.1935 9 45V9C9 7.80653 9.47411 6.66193 10.318 5.81802C11.1619 4.97411 12.3065 4.5 13.5 4.5H31.5ZM40.5 45V20.25H29.25V9H13.5V45H40.5ZM25.2 41.535L19.0125 34.785L21.6225 32.175L25.2 35.73L33.255 27.675L35.8875 30.8475L25.2 41.535Z" fill="white"/>
</svg>
