<svg width="54" height="54" viewBox="0 0 54 54" fill="none" xmlns="http://www.w3.org/2000/svg">
<path d="M31.5 4.5H13.5C11.025 4.5 9 6.525 9 9V45C9 45.9225 9.27 46.8 9.765 47.52C9.9225 47.7675 10.125 47.9925 10.3275 48.1725C11.1375 49.005 12.2625 49.5 13.5 49.5H30.4425C29.25 48.195 28.3725 46.6875 27.7875 45H13.5V9H29.25V20.25H40.5V27C42.075 27 43.5825 27.27 45 27.765V18L31.5 4.5Z" fill="white"/>
<path d="M41.625 31.5L51.75 42.75L45 42.75L45 51.75L38.25 51.75L38.25 42.75L31.5 42.75L35.55 38.25L41.625 31.5Z" fill="white"/>
</svg>
