<svg width="39" height="45" viewBox="0 0 39 45" fill="none" xmlns="http://www.w3.org/2000/svg">
<path d="M35.6382 3.19029C33.5753 1.12971 30.843 0 27.9297 0H10.9023C7.98896 0 5.24756 1.12971 3.19377 3.19029C1.13094 5.25087 0 7.98024 0 10.8904V29.6345C0 32.5446 1.13094 35.283 3.19377 37.3345C5.25661 39.3951 7.98896 40.3621 10.9023 40.3621C10.9023 40.3621 19.2984 40.3802 22.1393 40.3802C24.4283 40.3802 29.1601 45.0979 30.1192 44.9985C30.3092 44.9985 30.4992 44.9623 30.6801 44.881C31.1777 44.6641 31.5035 44.167 31.5035 43.6157V39.9283C33.4306 39.2595 35.1586 38.0485 36.4434 36.4488C37.2034 35.4999 37.7915 34.4515 38.1986 33.3128C38.6238 32.1379 38.8319 30.8997 38.8319 29.6435V10.8904C38.8319 7.98024 37.701 5.24184 35.6382 3.19029ZM35.991 29.5893C35.991 31.451 35.3758 33.2043 34.2177 34.6503C33.0868 36.0602 31.5035 37.0544 29.7573 37.4701C29.133 37.6147 28.6987 38.166 28.6987 38.8077V40.3983C28.6987 40.3983 23.795 37.687 22.6459 37.687H10.9565C6.48707 37.687 2.84997 34.0539 2.84997 29.5893V10.9446C2.84092 6.47999 6.47802 2.8559 10.9475 2.8559H27.8844C32.3539 2.8559 35.991 6.48903 35.991 10.9536V29.5983V29.5893Z" fill="#304991"/>
<path fill-rule="evenodd" clip-rule="evenodd" d="M27.5499 23.9951C25.2428 25.2151 19.2443 28.3512 14.0329 30.8094C13.8791 30.8817 13.68 30.9721 13.4629 31.0625C17.7424 31.0625 27.9661 31.0444 27.9661 31.0444C29.9746 30.9721 30.2279 30.8185 30.237 29.0923V21.6362C29.7032 22.6123 28.7532 23.4709 27.5408 23.986L27.5499 23.9951Z" fill="#304991"/>
<path fill-rule="evenodd" clip-rule="evenodd" d="M9.1748 13.1226V27.0587C9.21099 27.8269 9.43718 29.7519 10.6134 30.3574C11.6086 30.8726 12.9114 30.249 13.6171 29.9236C18.8014 27.4744 24.7999 24.3383 27.1341 23.1092C29.1698 22.2507 30.0293 20.4612 29.7127 19.214C29.4865 18.3193 28.7174 17.768 28.2741 17.524L13.9067 10.7638C13.02 10.2577 12.2057 10.0046 11.5091 10.0046C11.0838 10.0046 10.7038 10.095 10.3781 10.2848C9.60004 10.7367 9.1748 11.7399 9.1748 13.1136V13.1226Z" fill="#F8AD1D"/>
</svg>
