<svg width="38" height="47" viewBox="0 0 38 47" fill="none" xmlns="http://www.w3.org/2000/svg">
<g clip-path="url(#clip0_407_1128)">
<path d="M37.3866 16.7387L34.3987 16.5576C34.072 16.5379 33.7413 16.5261 33.4106 16.5261H26.6434L31.2808 13.0618C32.2178 12.3611 33.0878 11.5856 33.8594 10.7589L36.4812 7.71584C36.5521 7.63317 36.5402 7.50719 36.4497 7.44027L33.0169 4.8893C32.9382 4.83025 32.828 4.84206 32.765 4.91686L30.4305 7.55443C29.844 8.18037 29.1865 8.76693 28.474 9.30232L18.8016 16.5261H18.7937L9.12128 9.30232C8.40874 8.76693 7.74738 8.18037 7.16476 7.55443L4.8303 4.91686C4.76732 4.84206 4.65709 4.83419 4.57836 4.8893L1.14557 7.44027C1.05897 7.50719 1.04322 7.62923 1.11408 7.71584L3.73591 10.7589C4.51143 11.5895 5.3775 12.3651 6.31443 13.0618L10.9518 16.5261H4.10989C3.78315 16.5261 3.4564 16.5379 3.12966 16.5576L0.177151 16.7387C0.0787336 16.7426 0 16.8253 0 16.9277V21.2541C0 21.3643 0.0944803 21.447 0.200771 21.443L3.42097 21.2423C3.6493 21.2265 3.87763 21.2226 4.10596 21.2226H16.4593V26.9071L8.53866 34.8277C7.79069 35.5757 6.97973 36.2686 6.12154 36.8906L2.7045 39.3628C2.61002 39.4297 2.59821 39.5636 2.68088 39.6462L5.75149 42.7523C5.81841 42.8192 5.92076 42.8271 5.99556 42.772L8.86934 40.6894C9.9283 39.9218 10.9282 39.0715 11.8533 38.1464L16.4553 33.5444V46.8189C16.4553 46.9212 16.538 47.0078 16.6443 47.0078H20.9628C21.0652 47.0078 21.1518 46.9251 21.1518 46.8189V33.631L25.6671 38.1464C26.5923 39.0715 27.5922 39.9218 28.6511 40.6894L31.5249 42.772C31.5997 42.8271 31.7021 42.8192 31.769 42.7523L34.8396 39.6462C34.9223 39.5636 34.9105 39.4297 34.816 39.3628L31.3989 36.8906C30.5408 36.2686 29.7298 35.5757 28.9818 34.8277L21.1478 26.9937V21.2226H33.4067C33.6389 21.2226 33.8712 21.2305 34.1034 21.2423L37.3551 21.443C37.4614 21.4509 37.5559 21.3643 37.5559 21.2541V16.9277C37.5559 16.8292 37.4811 16.7466 37.3788 16.7387H37.3866Z" fill="black"/>
<path d="M21.6836 9.34961L18.9358 6.65299C18.861 6.58213 18.7429 6.58213 18.6721 6.65299L15.9755 9.34961C15.9007 9.42441 15.7826 9.42441 15.7117 9.34961L12.6372 6.31837C12.5624 6.24357 12.5624 6.12547 12.6372 6.05067L18.6052 0.0826702C18.7154 -0.0275567 18.8925 -0.0275567 19.0028 0.0826702L24.9629 6.0428C25.0377 6.1176 25.0377 6.2357 24.9629 6.30656L21.9474 9.34567C21.8726 9.42047 21.7545 9.42047 21.6836 9.34567V9.34961Z" fill="#8250FF"/>
</g>
<defs>
<clipPath id="clip0_407_1128">
<rect width="37.5638" height="47" fill="white"/>
</clipPath>
</defs>
</svg>
