<svg width="269" height="73" viewBox="0 0 269 73" fill="none" xmlns="http://www.w3.org/2000/svg">
<g opacity="0.8" clip-path="url(#clip0_628_528)">
<path d="M58.0502 5.17554C54.6901 1.8327 50.2395 0 45.4941 0H17.7585C13.013 0 8.54764 1.8327 5.20227 5.17554C1.84216 8.51838 0 12.9462 0 17.6672V48.0753C0 52.7963 1.84216 57.2388 5.20227 60.567C8.56237 63.9098 13.013 65.4786 17.7585 65.4786C17.7585 65.4786 31.4347 65.5079 36.0622 65.5079C39.7907 65.5079 47.4983 73.1613 49.0605 73C49.37 73 49.6794 72.9414 49.9742 72.8094C50.7847 72.4575 51.3153 71.6511 51.3153 70.7568V64.7748C54.4543 63.6899 57.2692 61.7252 59.3619 59.1301C60.5998 57.5907 61.5577 55.8899 62.2209 54.0426C62.9135 52.1366 63.2525 50.1279 63.2525 48.09V17.6672C63.2525 12.9462 61.4103 8.50372 58.0502 5.17554ZM58.625 48.002C58.625 51.0223 57.6229 53.8666 55.7365 56.2125C53.8943 58.4997 51.3153 60.1125 48.471 60.7869C47.4541 61.0215 46.7467 61.9158 46.7467 62.9568V65.5373C46.7467 65.5373 38.7591 61.1388 36.8875 61.1388H17.8469C10.5666 61.1388 4.64225 55.2448 4.64225 48.002V17.7552C4.62751 10.5124 10.5519 4.63306 17.8321 4.63306H45.4204C52.7006 4.63306 58.625 10.527 58.625 17.7698V48.0167V48.002Z" fill="#304991"/>
<path d="M95.2616 49.9813C92.6973 49.9813 90.3688 49.5562 88.2466 48.7058C86.1244 47.8554 84.297 46.6532 82.7791 45.099C81.2464 43.5596 80.0674 41.7122 79.2274 39.5863C78.3873 37.4604 77.96 35.1292 77.96 32.578C77.96 30.0269 78.3873 27.7104 79.2274 25.5991C80.0674 23.4879 81.2611 21.6552 82.7791 20.1157C84.3117 18.5616 86.1244 17.374 88.2466 16.509C90.3688 15.6586 92.712 15.2334 95.2616 15.2334C97.8111 15.2334 100.154 15.6586 102.262 16.509C104.369 17.3593 106.197 18.5616 107.729 20.1157C109.277 21.6698 110.456 23.4879 111.31 25.5991C112.15 27.7104 112.578 30.0416 112.578 32.578C112.578 35.1145 112.15 37.4604 111.31 39.5863C110.47 41.7122 109.277 43.5449 107.729 45.099C106.182 46.6532 104.369 47.8408 102.262 48.7058C100.154 49.5562 97.8258 49.9813 95.2616 49.9813ZM95.2616 45.9054C97.1479 45.9054 98.8869 45.5682 100.479 44.8791C102.055 44.2047 103.441 43.2663 104.605 42.0641C105.769 40.8618 106.668 39.4543 107.287 37.8269C107.906 36.2141 108.23 34.4547 108.23 32.578C108.23 30.7014 107.921 28.942 107.287 27.3292C106.668 25.7164 105.769 24.2943 104.605 23.092C103.441 21.8898 102.07 20.9661 100.479 20.2916C98.8869 19.6319 97.1627 19.2947 95.2616 19.2947C93.3604 19.2947 91.6362 19.6319 90.0445 20.2916C88.4529 20.9514 87.0971 21.8898 85.9476 23.092C84.7981 24.2943 83.8991 25.7018 83.2654 27.3292C82.6317 28.9566 82.3075 30.7014 82.3075 32.578C82.3075 34.4547 82.6317 36.2141 83.2654 37.8269C83.8991 39.4543 84.7981 40.8618 85.9476 42.0641C87.0971 43.2663 88.4677 44.2047 90.0445 44.8791C91.6214 45.5535 93.3604 45.9054 95.2616 45.9054ZM107.169 48.8524L98.0616 39.7915C97.59 39.3224 97.369 38.8092 97.369 38.2521C97.369 37.6949 97.6048 37.1818 98.0616 36.7126C98.5332 36.2434 99.049 36.0235 99.6091 36.0235C100.169 36.0235 100.685 36.2581 101.156 36.7126L110.264 45.8175C110.706 46.2866 110.927 46.7851 110.942 47.3423C110.942 47.8847 110.736 48.3979 110.264 48.8671C109.793 49.3362 109.277 49.5562 108.717 49.5562C108.157 49.5562 107.641 49.3216 107.169 48.8671V48.8524Z" fill="#304991"/>
<path d="M127.536 49.7612C125.532 49.7612 123.734 49.3361 122.157 48.4857C120.565 47.6353 119.327 46.3891 118.414 44.7323C117.5 43.0902 117.043 41.0523 117.043 38.6624V27.9888C117.043 27.3584 117.249 26.8305 117.677 26.4054C118.104 25.9802 118.635 25.7749 119.268 25.7749C119.902 25.7749 120.433 25.9802 120.86 26.4054C121.287 26.8305 121.494 27.3584 121.494 27.9888V38.6624C121.494 40.2899 121.803 41.6241 122.407 42.6797C123.012 43.7353 123.852 44.5124 124.898 45.0256C125.944 45.5387 127.123 45.788 128.435 45.788C129.747 45.788 130.793 45.5387 131.766 45.0549C132.738 44.5564 133.519 43.8966 134.094 43.0609C134.669 42.2252 134.964 41.2869 134.964 40.2459H137.705C137.705 42.0346 137.263 43.662 136.378 45.0989C135.494 46.5504 134.286 47.694 132.753 48.5297C131.22 49.3654 129.496 49.7906 127.536 49.7906V49.7612ZM137.174 49.5413C136.54 49.5413 136.01 49.3361 135.583 48.9109C135.155 48.4857 134.949 47.9579 134.949 47.3274V27.9741C134.949 27.3144 135.155 26.7719 135.583 26.376C136.01 25.9655 136.54 25.7749 137.174 25.7749C137.808 25.7749 138.383 25.9802 138.795 26.376C139.208 26.7866 139.399 27.3144 139.399 27.9741V47.3274C139.399 47.9579 139.193 48.4857 138.795 48.9109C138.383 49.3361 137.852 49.5413 137.174 49.5413Z" fill="#304991"/>
<path d="M155.448 49.7174C153.326 49.7174 151.425 49.1896 149.73 48.1339C148.05 47.0783 146.709 45.6415 145.736 43.8381C144.764 42.0347 144.277 39.9821 144.277 37.6949C144.277 35.4077 144.808 33.3551 145.869 31.537C146.93 29.719 148.374 28.2822 150.187 27.2265C152 26.1709 154.048 25.6431 156.318 25.6431C158.587 25.6431 160.621 26.1709 162.419 27.2265C164.217 28.2822 165.646 29.719 166.708 31.537C167.769 33.3551 168.299 35.4077 168.299 37.6949H166.604C166.604 39.9821 166.118 42.0201 165.145 43.8381C164.173 45.6415 162.846 47.0783 161.152 48.1339C159.472 49.1896 157.556 49.7174 155.433 49.7174H155.448ZM156.318 45.8174C157.806 45.8174 159.118 45.4655 160.282 44.7618C161.446 44.058 162.36 43.0903 163.023 41.8588C163.686 40.6272 164.025 39.249 164.025 37.7095C164.025 36.1701 163.686 34.7479 163.023 33.5163C162.36 32.2848 161.432 31.3171 160.282 30.6133C159.118 29.9096 157.791 29.5577 156.318 29.5577C154.844 29.5577 153.547 29.9096 152.368 30.6133C151.189 31.3171 150.261 32.2848 149.583 33.5163C148.905 34.7479 148.551 36.1408 148.551 37.7095C148.551 39.2783 148.89 40.6272 149.583 41.8588C150.261 43.0903 151.204 44.058 152.368 44.7618C153.547 45.4655 154.859 45.8174 156.318 45.8174ZM166.089 49.5854C165.455 49.5854 164.924 49.3802 164.497 48.955C164.07 48.5298 163.863 48.002 163.863 47.3715V40.7298L164.689 36.1261L168.314 37.6949V47.3715C168.314 48.002 168.108 48.5298 167.68 48.955C167.253 49.3802 166.722 49.5854 166.089 49.5854Z" fill="#304991"/>
<path d="M178.867 49.5416C177.584 49.5416 176.45 49.1897 175.462 48.5006C174.475 47.8115 173.709 46.8585 173.149 45.6563C172.589 44.454 172.323 43.0758 172.323 41.507V17.8286C172.323 17.1982 172.53 16.6703 172.927 16.2598C173.34 15.8493 173.856 15.6587 174.504 15.6587C175.153 15.6587 175.669 15.864 176.081 16.2598C176.494 16.6703 176.685 17.1835 176.685 17.8286V41.5217C176.685 42.592 176.892 43.4717 177.29 44.1755C177.702 44.8646 178.218 45.2164 178.867 45.2164H179.957C180.532 45.2164 181.004 45.4217 181.372 45.8176C181.74 46.2281 181.917 46.7412 181.917 47.3863C181.917 48.0315 181.637 48.5446 181.092 48.9551C180.532 49.3657 179.825 49.5563 178.955 49.5563H178.867V49.5416Z" fill="#304991"/>
<path d="M187.193 21.9485C186.412 21.9485 185.734 21.6699 185.159 21.0981C184.585 20.5263 184.305 19.8666 184.305 19.0748C184.305 18.2831 184.585 17.6233 185.159 17.0515C185.719 16.4944 186.397 16.2012 187.193 16.2012C187.989 16.2012 188.652 16.4797 189.227 17.0515C189.787 17.6087 190.082 18.2831 190.082 19.0748C190.082 19.8666 189.802 20.5263 189.227 21.0981C188.652 21.6699 187.989 21.9485 187.193 21.9485ZM187.193 49.5416C186.559 49.5416 186.029 49.3363 185.602 48.9112C185.174 48.486 184.968 47.9581 184.968 47.3277V28.0184C184.968 27.3586 185.174 26.8162 185.602 26.4203C186.029 26.0098 186.559 25.8192 187.193 25.8192C187.827 25.8192 188.402 26.0244 188.814 26.4203C189.227 26.8308 189.419 27.3586 189.419 28.0184V47.3277C189.419 47.9581 189.212 48.486 188.814 48.9112C188.402 49.3363 187.871 49.5416 187.193 49.5416Z" fill="#304991"/>
<path d="M194.517 30.408C193.913 30.408 193.412 30.2321 193.029 29.8949C192.646 29.543 192.469 29.1178 192.469 28.59C192.469 28.0182 192.66 27.549 193.029 27.1971C193.397 26.8453 193.898 26.6693 194.517 26.6693H205.334C205.939 26.6693 206.44 26.8453 206.823 27.1971C207.206 27.549 207.383 28.0035 207.383 28.59C207.383 29.1178 207.191 29.543 206.823 29.8949C206.44 30.2467 205.953 30.408 205.334 30.408H194.517ZM198.614 49.5414C197.98 49.5414 197.45 49.3215 197.023 48.8963C196.595 48.4711 196.389 47.9433 196.389 47.3275V25.9362C196.389 23.7663 196.816 21.8896 197.671 20.3209C198.526 18.7521 199.882 17.5205 201.724 16.6555C203.566 15.7904 205.968 15.3506 208.901 15.3506C210.301 15.3506 211.509 15.5119 212.541 15.8344C213.573 16.157 214.383 16.5822 214.958 17.1393C215.533 17.6964 215.827 18.3415 215.827 19.0893C215.827 20.3648 215.046 20.9953 213.469 20.9953C212.865 20.9953 212.32 20.8633 211.834 20.5994C211.347 20.3355 210.876 20.0423 210.419 19.6904C209.947 19.3385 209.461 19.0453 208.93 18.7814C208.415 18.5175 207.796 18.3855 207.103 18.3855C206.027 18.3855 205.01 18.5908 204.052 19.016C203.094 19.4412 202.313 20.1889 201.724 21.2885C201.134 22.3881 200.825 23.9423 200.825 25.9362V47.3275C200.825 47.9286 200.618 48.4564 200.191 48.8963C199.764 49.3361 199.233 49.5414 198.599 49.5414H198.614ZM213.13 49.5414C212.497 49.5414 211.966 49.3361 211.539 48.9109C211.111 48.4858 210.905 47.9579 210.905 47.3275V28.0182C210.905 27.3584 211.111 26.8159 211.539 26.4201C211.966 26.0096 212.497 25.819 213.13 25.819C213.764 25.819 214.339 26.0242 214.752 26.4201C215.164 26.8306 215.356 27.3584 215.356 28.0182V47.3275C215.356 47.9579 215.149 48.4858 214.752 48.9109C214.339 49.3361 213.808 49.5414 213.13 49.5414Z" fill="#304991"/>
<path d="M232.539 49.7174C230.211 49.7174 228.148 49.1896 226.32 48.1339C224.508 47.0783 223.078 45.6415 222.046 43.8381C221.015 42.0347 220.499 39.9821 220.499 37.6949C220.499 35.4077 221 33.2671 222.032 31.4491C223.049 29.631 224.449 28.2088 226.217 27.1825C227.986 26.1562 230.019 25.6431 232.318 25.6431C234.028 25.6431 235.605 25.9656 237.034 26.6254C238.464 27.2705 239.731 28.2528 240.866 29.5577C241.279 30.0269 241.411 30.496 241.308 30.9945C241.19 31.493 240.866 31.9182 240.35 32.2994C239.938 32.5927 239.495 32.6806 238.994 32.578C238.493 32.4754 238.051 32.2261 237.639 31.8156C236.209 30.3054 234.441 29.5577 232.318 29.5577C230.83 29.5577 229.533 29.8949 228.398 30.584C227.263 31.2585 226.379 32.2115 225.731 33.4284C225.097 34.6453 224.773 36.0821 224.773 37.7242C224.773 39.293 225.097 40.6712 225.76 41.8881C226.409 43.105 227.322 44.058 228.487 44.7764C229.651 45.4802 231.007 45.8321 232.539 45.8321C233.556 45.8321 234.455 45.7148 235.222 45.4655C235.988 45.2163 236.695 44.8351 237.344 44.3219C237.815 43.9407 238.287 43.7355 238.788 43.6915C239.289 43.6475 239.716 43.7794 240.1 44.102C240.601 44.5125 240.866 44.967 240.925 45.4655C240.984 45.9787 240.807 46.4332 240.409 46.829C238.316 48.7644 235.693 49.732 232.554 49.732L232.539 49.7174Z" fill="#304991"/>
<path d="M256.134 49.7174C254.012 49.7174 252.11 49.1896 250.416 48.1339C248.736 47.0783 247.395 45.6415 246.422 43.8381C245.449 42.0347 244.963 39.9821 244.963 37.6949C244.963 35.4077 245.493 33.3551 246.555 31.537C247.616 29.719 249.06 28.2822 250.873 27.2265C252.685 26.1709 254.734 25.6431 257.003 25.6431C259.273 25.6431 261.307 26.1709 263.105 27.2265C264.902 28.2822 266.332 29.719 267.393 31.537C268.454 33.3551 268.985 35.4077 268.985 37.6949H267.29C267.29 39.9821 266.804 42.0201 265.831 43.8381C264.858 45.6415 263.532 47.0783 261.837 48.1339C260.157 49.1896 258.241 49.7174 256.119 49.7174H256.134ZM257.003 45.8174C258.492 45.8174 259.803 45.4655 260.968 44.7618C262.132 44.058 263.046 43.0903 263.709 41.8588C264.372 40.6272 264.711 39.249 264.711 37.7095C264.711 36.1701 264.372 34.7479 263.709 33.5163C263.046 32.2848 262.117 31.3171 260.968 30.6133C259.803 29.9096 258.477 29.5577 257.003 29.5577C255.53 29.5577 254.233 29.9096 253.054 30.6133C251.875 31.3171 250.946 32.2848 250.268 33.5163C249.59 34.7479 249.237 36.1408 249.237 37.7095C249.237 39.2783 249.576 40.6272 250.268 41.8588C250.946 43.0903 251.889 44.058 253.054 44.7618C254.233 45.4655 255.544 45.8174 257.003 45.8174ZM266.774 49.5854C266.14 49.5854 265.61 49.3802 265.182 48.955C264.755 48.5298 264.549 48.002 264.549 47.3715V40.7298L265.374 36.1261L268.999 37.6949V47.3715C268.999 48.002 268.793 48.5298 268.366 48.955C267.938 49.3802 267.408 49.5854 266.774 49.5854Z" fill="#304991"/>
<path fill-rule="evenodd" clip-rule="evenodd" d="M44.8747 38.9263C41.1167 40.9056 31.3458 45.9932 22.8572 49.9811C22.6066 50.0984 22.2824 50.245 21.9287 50.3916C28.8995 50.3916 45.5526 50.3623 45.5526 50.3623C48.8243 50.245 49.2369 49.9958 49.2517 47.1954V35.0996C48.3822 36.6831 46.8348 38.0759 44.86 38.9116L44.8747 38.9263Z" fill="#304991"/>
<path fill-rule="evenodd" clip-rule="evenodd" d="M14.9434 21.2887V43.8969C15.0023 45.1431 15.3707 48.266 17.2866 49.2483C18.9077 50.084 21.0299 49.0724 22.1794 48.5446C30.6238 44.5713 40.3947 39.4837 44.1969 37.4898C47.5128 36.0969 48.9128 33.1939 48.397 31.1706C48.0286 29.7191 46.7759 28.8248 46.0538 28.4289L22.651 17.462C21.2067 16.641 19.8804 16.2305 18.7456 16.2305C18.0529 16.2305 17.434 16.3771 16.9034 16.685C15.636 17.4181 14.9434 19.0455 14.9434 21.2741V21.2887Z" fill="#F8AD1D"/>
</g>
<defs>
<clipPath id="clip0_628_528">
<rect width="269" height="73" fill="white"/>
</clipPath>
</defs>
</svg>
