<svg width="70" height="70" viewBox="0 0 70 70" fill="none" xmlns="http://www.w3.org/2000/svg">
<path d="M55.4167 52.5001V40.8334H49.5833V52.5001H43.75L52.5 61.2501L61.25 52.5001H55.4167ZM32.0833 11.6667C25.6667 11.6667 20.4167 16.9167 20.4167 23.3334C20.4167 29.7501 25.6667 35.0001 32.0833 35.0001C38.5 35.0001 43.75 29.7501 43.75 23.3334C43.75 16.9167 38.5 11.6667 32.0833 11.6667ZM32.0833 40.8334C19.25 40.8334 8.75 46.0834 8.75 52.5001V58.3334H36.4583C35.5833 56.0001 35 53.6667 35 51.0417C35 47.5417 35.875 44.3334 37.625 41.1251C35.875 41.1251 34.125 40.8334 32.0833 40.8334Z" fill="#F8AD1D"/>
</svg>
