<svg width="70" height="70" viewBox="0 0 70 70" fill="none" xmlns="http://www.w3.org/2000/svg">
<path d="M64.1667 14.5833V20.4166H55.4167V29.1666H49.5833V20.4166H40.8333V14.5833H49.5833V5.83325H55.4167V14.5833H64.1667ZM55.4167 55.4166H14.5833V14.5833H32.0833V8.74992H14.5833C11.375 8.74992 8.75 11.3749 8.75 14.5833V55.4166C8.75 58.6249 11.375 61.2499 14.5833 61.2499H55.4167C58.625 61.2499 61.25 58.6249 61.25 55.4166V37.9166H55.4167V55.4166ZM43.75 37.9166V49.5833H49.5833V37.9166H43.75ZM32.0833 49.5833H37.9167V26.2499H32.0833V49.5833ZM26.25 49.5833V32.0833H20.4167V49.5833H26.25Z" fill="#F8AD1D"/>
</svg>
