<svg width="46" height="46" viewBox="0 0 46 46" fill="none" xmlns="http://www.w3.org/2000/svg">
<g clip-path="url(#clip0_81_83)">
<path d="M23.6747 0.368774V9.85889C26.4224 10.1047 28.8512 10.9407 30.7157 12.6617L36.9963 5.23676C32.9483 2.11436 28.5077 0.516289 23.6747 0.368774Z" fill="#A5A0A0"/>
<path d="M30.7402 13.2272L30.4458 12.9567C28.753 11.3832 26.5205 10.4981 23.6256 10.2523L23.3066 10.2277V0H23.6746C28.6058 0.147515 33.1445 1.81935 37.217 4.94174L37.5114 5.1876L30.7402 13.2272ZM24.0426 9.53928C26.7904 9.83431 28.9493 10.6948 30.6666 12.1454L36.4565 5.31053C32.7274 2.50775 28.5322 0.983431 24.0426 0.762159V9.53928Z" fill="#A5A0A0"/>
<path d="M34.7638 20.6521L34.6902 20.3079C34.0523 17.3576 33.071 15.3908 31.4518 13.9156L31.1819 13.6698L37.9776 5.53186L38.272 5.8023C42.4182 9.80979 44.7488 13.891 45.4358 18.2919L45.4848 18.6361L34.7638 20.6521ZM32.2123 13.596C33.7088 15.0711 34.7147 17.0626 35.328 19.7916L44.6752 18.0706C43.9638 14.0631 41.8048 10.3261 38.0758 6.63822L32.2123 13.596Z" fill="#A5A0A0"/>
<path d="M35.1808 21.5863L45.3376 19.7915C46.1227 24.6841 45.3376 29.38 42.9579 33.8546L33.5126 28.3719C34.5675 26.6018 35.2299 24.4628 35.1808 21.5863Z" fill="#A5A0A0"/>
<path d="M43.105 34.3709L33.0219 28.4949L33.2181 28.1753C34.3466 26.3314 34.8618 24.1678 34.8128 21.5863V21.2667L45.632 19.349L45.681 19.7178C46.4906 24.6841 45.681 29.4783 43.2768 34.0021L43.105 34.3709ZM34.0277 28.2245L42.8106 33.3383C44.945 29.1587 45.681 24.7579 45.0186 20.2095L35.5488 21.8813C35.5488 24.3153 35.0336 26.4051 34.0277 28.2245Z" fill="#A5A0A0"/>
<path d="M31.1328 44.5986L27.0358 33.2892L27.3792 33.1662C29.2928 32.4532 31.0102 31.1256 32.4576 29.2571L32.6539 29.0112L42.7126 34.8872L42.5163 35.2068C40.0139 39.2881 36.4075 42.3121 31.5008 44.4511L31.1328 44.5986ZM27.968 33.7071L31.5499 43.6152C36.015 41.5991 39.3515 38.821 41.6822 35.1331L32.8256 29.9701C31.4272 31.6911 29.7835 32.945 27.968 33.7071Z" fill="#A5A0A0"/>
<path d="M26.2507 34.0021L30.0779 44.5494C20.6571 48.1881 3.60641 42.6071 0.63788 27.1919C-1.61919 10.7686 10.5003 0.737561 22.2272 0.368774V9.85889C5.15201 11.4324 7.80161 37.4687 26.2507 34.0021Z" fill="#A5A0A0"/>
<path d="M23.8219 46C19.8229 46 15.5051 44.8936 11.7024 42.7793C5.61815 39.411 1.57015 33.8792 0.294414 27.2656C-0.981319 17.9722 2.33068 11.7766 5.32375 8.21165C9.46988 3.26991 15.7995 0.196686 22.2272 0H22.5952V10.2031L22.2517 10.2277C17.4187 10.6702 13.8368 13.1534 12.1195 17.1855C10.3776 21.3159 11.04 26.3805 13.7877 29.798C16.56 33.24 20.9515 34.6168 26.1525 33.6334L26.4715 33.5842L30.5195 44.7707L30.176 44.8936C28.2869 45.6312 26.1035 46 23.8219 46ZM21.8592 0.762159C15.7749 1.05719 9.81335 4.00748 5.88801 8.67878C2.96855 12.1208 -0.245319 18.1197 1.00588 27.1427C2.23255 33.535 6.15788 38.8701 12.0459 42.14C17.7131 45.287 24.5579 46.1475 29.5872 44.3282L26.0053 34.4201C20.6571 35.3298 16.1184 33.8546 13.248 30.2651C10.3285 26.651 9.61708 21.2667 11.4816 16.8904C13.248 12.6863 16.928 10.0802 21.8592 9.5147V0.762159Z" fill="#A5A0A0"/>
<path d="M19.2096 24.3153C20.5589 25.1513 21.7365 25.643 23.0858 25.643C24.1162 25.643 24.6805 25.2742 24.6805 24.6595C24.6805 22.8648 18.4245 23.1844 18.4245 19.2261C18.4245 17.0625 20.2645 15.6366 23.1349 15.6366C25.0976 15.6366 26.4224 16.3987 27.4773 17.4559L25.9072 19.2753C24.9013 18.5623 24.1162 18.1935 22.9141 18.1935C21.9573 18.1935 21.4176 18.5623 21.4176 19.1769C21.4176 20.7012 27.6736 20.5046 27.6736 24.4383C27.6736 26.5527 25.8826 28.1999 22.5952 28.1999C21.0741 28.1999 19.0869 27.5607 17.8112 26.4543L19.2096 24.3153ZM21.9328 12.9321H24.0181V16.6446H21.9328V12.9321ZM24.0181 26.9214V31.2977H21.9328V26.9214H24.0181Z" fill="#A5A0A0"/>
</g>
<defs>
<clipPath id="clip0_81_83">
<rect width="46" height="46" fill="white"/>
</clipPath>
</defs>
</svg>
