<svg width="60" height="60" viewBox="0 0 60 60" fill="none" xmlns="http://www.w3.org/2000/svg">
<path d="M41.25 30C42.0708 30 42.8835 29.8383 43.6418 29.5242C44.4001 29.2102 45.0891 28.7498 45.6694 28.1694C46.2498 27.5891 46.7102 26.9001 47.0242 26.1418C47.3383 25.3835 47.5 24.5708 47.5 23.75C47.5 22.0924 46.8415 20.5027 45.6694 19.3306C44.4973 18.1585 42.9076 17.5 41.25 17.5C39.5924 17.5 38.0027 18.1585 36.8306 19.3306C35.6585 20.5027 35 22.0924 35 23.75C35 24.5708 35.1617 25.3835 35.4758 26.1418C35.7898 26.9001 36.2502 27.5891 36.8306 28.1694C38.0027 29.3415 39.5924 30 41.25 30ZM22.5 27.5C24.4891 27.5 26.3968 26.7098 27.8033 25.3033C29.2098 23.8968 30 21.9891 30 20C30 18.0109 29.2098 16.1032 27.8033 14.6967C26.3968 13.2902 24.4891 12.5 22.5 12.5C20.5109 12.5 18.6032 13.2902 17.1967 14.6967C15.7902 16.1032 15 18.0109 15 20C15 21.9891 15.7902 23.8968 17.1967 25.3033C18.6032 26.7098 20.5109 27.5 22.5 27.5ZM41.25 35C36.675 35 27.5 37.3 27.5 41.875V47.5H55V41.875C55 37.3 45.825 35 41.25 35ZM22.5 32.5C16.675 32.5 5 35.425 5 41.25V47.5H22.5V41.875C22.5 39.75 23.325 36.025 28.425 33.2C26.25 32.75 24.15 32.5 22.5 32.5Z" fill="#6A80AE" fill-opacity="0.8"/>
</svg>
