<svg width="60" height="60" viewBox="0 0 60 60" fill="none" xmlns="http://www.w3.org/2000/svg">
<g clip-path="url(#clip0_261_2467)">
<path d="M15.8566 4L28.1129 22.5459C28.1129 22.5459 22.1419 23.4889 18.685 26.9466L8 11.8584C9.57132 10.2867 13.971 5.25735 15.8566 4Z" fill="#304991"/>
<path d="M42.8833 4L30.627 22.5459C30.627 22.5459 36.598 23.4889 40.0549 26.9466L50.7399 11.8584C49.1686 10.2867 44.7689 5.25735 42.8833 4Z" fill="#304991"/>
<path d="M18.3711 4L24.6564 14.0588H34.0843L40.3696 4H18.3711Z" fill="#304991"/>
<path d="M29.0554 26.0034C20.696 26.0034 13.9707 32.7302 13.9707 41.0916C13.9707 49.453 20.696 56.1798 29.0554 56.1798C37.4149 56.1798 44.1401 49.453 44.1401 41.0916C44.1401 32.7302 37.4149 26.0034 29.0554 26.0034ZM29.0554 51.1504C23.5244 51.1504 18.9989 46.6239 18.9989 41.0916C18.9989 35.5593 23.5244 31.0328 29.0554 31.0328C34.5865 31.0328 39.1119 35.5593 39.1119 41.0916C39.1119 46.6239 34.5865 51.1504 29.0554 51.1504Z" fill="#304991"/>
<path d="M24.1534 46.121C27.9874 42.9147 30.5015 40.6515 30.5015 38.7655C30.5015 37.5081 29.6845 36.7537 28.3017 36.7537C27.2332 36.7537 26.3533 37.3824 25.599 38.0739L23.9648 36.4394C25.3476 35.0563 26.6675 34.3647 28.7417 34.3647C31.5701 34.3647 33.4556 36.0622 33.4556 38.5769C33.4556 40.8401 31.1301 43.2291 28.5531 45.4294C29.3073 45.3666 30.2501 45.3037 30.9415 45.3037H34.0842V47.8813H24.1534V46.121Z" fill="#304991"/>
</g>
<defs>
<clipPath id="clip0_261_2467">
<rect width="42.74" height="52.18" fill="white" transform="translate(8 4)"/>
</clipPath>
</defs>
</svg>
