<svg width="46" height="46" viewBox="0 0 46 46" fill="none" xmlns="http://www.w3.org/2000/svg">
<g clip-path="url(#clip0_97_105)">
<path d="M13.0241 3L22.4217 17.2169C22.4217 17.2169 17.8434 17.9398 15.1928 20.5904L7 9.0241C8.20482 7.81928 11.5783 3.96386 13.0241 3Z" fill="#F8F8F8"/>
<path d="M33.747 3L24.3494 17.2169C24.3494 17.2169 28.9277 17.9398 31.5783 20.5904L39.7711 9.0241C38.5663 7.81928 35.1928 3.96386 33.747 3Z" fill="#F8F8F8"/>
<path d="M14.9518 3L19.7711 10.7108H27L31.8193 3H14.9518Z" fill="#F8F8F8"/>
<path d="M23.1446 19.8674C16.7349 19.8674 11.5783 25.0241 11.5783 31.4337C11.5783 37.8433 16.7349 43 23.1446 43C29.5542 43 34.7108 37.8433 34.7108 31.4337C34.7108 25.0241 29.5542 19.8674 23.1446 19.8674ZM23.1446 39.1445C18.9036 39.1445 15.4337 35.6747 15.4337 31.4337C15.4337 27.1927 18.9036 23.7229 23.1446 23.7229C27.3855 23.7229 30.8554 27.1927 30.8554 31.4337C30.8554 35.6747 27.3855 39.1445 23.1446 39.1445Z" fill="#F8F8F8"/>
<path d="M19.3855 35.2891C22.3253 32.8313 24.253 31.0964 24.253 29.6506C24.253 28.6867 23.6265 28.1084 22.5663 28.1084C21.747 28.1084 21.0723 28.5904 20.494 29.1205L19.241 27.8675C20.3012 26.8072 21.3133 26.2771 22.9036 26.2771C25.0723 26.2771 26.5181 27.5783 26.5181 29.506C26.5181 31.241 24.7349 33.0723 22.759 34.759C23.3374 34.7108 24.0602 34.6626 24.5904 34.6626H27V36.6385H19.3855V35.2891Z" fill="#F8F8F8"/>
</g>
<defs>
<clipPath id="clip0_97_105">
<rect width="32.7711" height="40" fill="white" transform="translate(7 3)"/>
</clipPath>
</defs>
</svg>
