<svg width="29" height="35" viewBox="0 0 29 35" fill="none" xmlns="http://www.w3.org/2000/svg">
<g clip-path="url(#clip0_290_407)">
<path d="M5.16256 0L13.2162 12.1836C13.2162 12.1836 9.29261 12.8032 7.02108 15.0747L0 5.16256C1.03251 4.13005 3.92355 0.82601 5.16256 0Z" fill="#1F808E" fill-opacity="0.9"/>
<path d="M22.9218 0L14.8682 12.1836C14.8682 12.1836 18.7917 12.8032 21.0632 15.0747L28.0843 5.16256C27.0518 4.13005 24.1608 0.82601 22.9218 0Z" fill="#1F808E" fill-opacity="0.9"/>
<path d="M6.81445 0L10.9445 6.60808H17.1396L21.2696 0H6.81445Z" fill="#1F808E" fill-opacity="0.9"/>
<path d="M13.835 14.4551C8.342 14.4551 3.92285 18.8742 3.92285 24.3672C3.92285 29.8602 8.342 34.2793 13.835 34.2793C19.3279 34.2793 23.7471 29.8602 23.7471 24.3672C23.7471 18.8742 19.3279 14.4551 13.835 14.4551ZM13.835 30.9753C10.2005 30.9753 7.22689 28.0016 7.22689 24.3672C7.22689 20.7328 10.2005 17.7591 13.835 17.7591C17.4694 17.7591 20.4431 20.7328 20.4431 24.3672C20.4431 28.0016 17.4694 30.9753 13.835 30.9753Z" fill="#1F808E" fill-opacity="0.9"/>
<path d="M13.8736 19.7107L14.9318 22.9676H18.3563L15.5858 24.9805L16.6441 28.2373L13.8736 26.2245L11.1031 28.2373L12.1613 24.9805L9.39085 22.9676H12.8153L13.8736 19.7107Z" fill="#1F808E" fill-opacity="0.9"/>
</g>
<defs>
<clipPath id="clip0_290_407">
<rect width="28.0843" height="34.2794" fill="white"/>
</clipPath>
</defs>
</svg>
