<svg width="48" height="48" viewBox="0 0 48 48" fill="none" xmlns="http://www.w3.org/2000/svg">
<path d="M42.2 25L45 27.82L31.94 41L25 34L27.8 31.18L31.94 35.34L42.2 25ZM20 34L26 40H6V36C6 31.58 13.16 28 22 28L25.78 28.22L20 34ZM22 8C24.1217 8 26.1566 8.84285 27.6569 10.3431C29.1571 11.8434 30 13.8783 30 16C30 18.1217 29.1571 20.1566 27.6569 21.6569C26.1566 23.1571 24.1217 24 22 24C19.8783 24 17.8434 23.1571 16.3431 21.6569C14.8429 20.1566 14 18.1217 14 16C14 13.8783 14.8429 11.8434 16.3431 10.3431C17.8434 8.84285 19.8783 8 22 8Z" fill="#3787A8"/>
</svg>
