<svg width="107" height="108" viewBox="0 0 107 108" fill="none" xmlns="http://www.w3.org/2000/svg">
<path d="M68.8984 59.4524C63.4497 51.384 56.7901 44.6321 49.1552 38.7918C47.7762 40.1759 46.4645 41.5263 45.0519 42.9779C52.6532 48.717 59.38 55.4351 64.6605 63.6385C55.5793 72.8548 47.2045 82.6449 40.1749 93.7517C40.0404 93.4479 39.9731 93.2791 39.9059 93.0765C38.8296 89.3292 36.6097 86.3247 33.8854 83.6915C29.8157 79.6741 25.1742 76.602 19.5573 75.2854C18.6828 75.0829 17.7411 74.9816 16.7993 74.9816C13.0323 74.9816 10.5098 77.4123 10.4089 81.1933C10.3752 82.2736 10.4425 83.3876 10.7788 84.4004C12.8641 90.5783 16.9675 94.5957 23.4925 95.8447C25.6114 96.2499 27.6631 95.811 29.7484 94.7307C28.7394 94.6632 27.8985 94.6632 27.0913 94.4944C21.9117 93.5154 17.9765 90.5783 15.1512 86.2234C14.4449 85.1093 14.0413 83.6577 13.8732 82.3073C13.5705 79.7754 15.0503 78.2562 17.5729 78.155C18.2792 78.1212 19.0192 78.1887 19.6582 78.3913C26.2168 80.4506 31.4974 84.2316 34.928 90.342C37.1143 94.2243 36.4079 98.5792 33.3809 101.212C30.7238 103.508 27.6631 104.386 24.1988 103.846C20.1291 103.204 16.6311 101.28 13.5032 98.6805C9.33257 95.2371 6.03643 91.1185 4.59017 85.7845C3.00937 79.9104 4.62381 75.0491 9.19803 71.0655C16.7993 64.4825 24.2997 57.8657 31.8337 51.2489C32.0692 51.0464 32.3046 50.8438 32.54 50.6413C30.7574 51.1139 29.0757 51.7215 27.3268 51.9916C21.0372 52.9706 16.4966 49.7973 15.0503 43.5856C14.3777 40.6485 14.4113 37.7453 15.8576 35.0108C17.842 31.2635 21.1717 29.7781 25.2078 29.7781C30.1184 29.7443 34.6253 31.3985 38.8632 33.7617C39.1323 33.8967 39.4014 34.0655 39.6704 34.2005C39.6704 34.2005 39.7041 34.1668 39.7041 34.2005C38.8969 32.4451 37.9887 30.7233 37.2824 28.9341C36.0043 25.7608 35.1971 22.4524 35.3653 19.0089C35.5671 13.9113 38.5942 10.164 43.3365 9.21877C47.0699 8.50983 50.6015 9.25253 53.6958 11.4806C57.3619 14.1138 58.2028 17.8611 57.4292 22.081C57.1265 23.6677 56.5883 25.2206 56.1175 26.9423C58.5391 24.2078 60.9271 21.6421 63.1806 18.9414C66.2413 15.2954 69.1675 11.5819 72.2282 7.90216C74.2126 5.50526 76.836 4.32369 79.8631 4.05362C82.2847 3.85106 84.6727 4.22241 86.9262 5.16767C95.3683 8.67862 100.548 15.0253 102.701 23.8365C103.609 27.55 102.431 30.8246 99.4381 33.289C94.4939 37.3739 89.4151 41.29 84.5382 45.4761C79.5604 49.7297 74.7171 54.2197 69.8401 58.5746C69.5038 58.8785 69.2347 59.1148 68.8984 59.4524ZM45.6573 37.0363C45.7582 37.0363 45.8927 37.0363 45.9936 37.0363C47.1036 32.7151 48.3144 28.4277 49.3234 24.0728C49.6261 22.7899 49.4243 21.3721 49.2561 20.0555C49.1216 19.0427 48.348 18.4013 47.2717 18.2662C46.2291 18.1312 45.3209 18.5025 44.8501 19.414C44.3792 20.3255 43.8747 21.3383 43.8747 22.3511C43.8411 24.5454 43.942 26.7735 44.211 28.9679C44.581 31.6686 45.1864 34.3356 45.6573 37.0363ZM42.5966 40.4797C42.5966 40.3785 42.6302 40.3109 42.6302 40.2097C41.1503 39.9058 39.6704 39.5345 38.1569 39.2644C34.928 38.7243 31.6992 37.914 28.3694 38.2516C27.2595 38.3529 26.1496 38.7243 25.1405 39.1969C24.1652 39.6695 23.7279 40.6148 23.8625 41.7288C23.997 42.8429 24.7033 43.5856 25.746 43.7206C26.9568 43.8894 28.2349 44.0582 29.3784 43.7881C33.8181 42.8091 38.1905 41.6276 42.5966 40.4797Z" fill="white" fill-opacity="0.4"/>
</svg>
