<svg width="55" height="55" viewBox="0 0 55 55" fill="none" xmlns="http://www.w3.org/2000/svg">
<path d="M32.083 29.7917V25.2084L27.4997 27.5L22.9163 25.2084V29.7917L18.333 32.0834L22.9163 34.375V38.9584L27.4997 36.6667L32.083 38.9584V34.375L36.6663 32.0834M32.083 4.58337H16.0413C14.8258 4.58337 13.66 5.06626 12.8004 5.9258C11.9409 6.78534 11.458 7.95113 11.458 9.16671V41.25C11.458 42.4656 11.9409 43.6314 12.8004 44.4909C13.66 45.3505 14.8258 45.8334 16.0413 45.8334H18.333V41.25H16.0413V9.16671H29.7913V18.3334H38.958V41.25H36.6663V45.8334H38.958C40.1736 45.8334 41.3394 45.3505 42.1989 44.4909C43.0585 43.6314 43.5413 42.4656 43.5413 41.25V16.0417M32.083 29.7917V25.2084L27.4997 27.5L22.9163 25.2084V29.7917L18.333 32.0834L22.9163 34.375V38.9584L27.4997 36.6667L32.083 38.9584V34.375L36.6663 32.0834M22.9163 52.7084L27.4997 50.4167L32.083 52.7084V41.25H22.9163M32.083 29.7917V25.2084L27.4997 27.5L22.9163 25.2084V29.7917L18.333 32.0834L22.9163 34.375V38.9584L27.4997 36.6667L32.083 38.9584V34.375L36.6663 32.0834L32.083 29.7917Z" fill="#6A80AE" fill-opacity="0.8"/>
</svg>
