<svg width="55" height="55" viewBox="0 0 55 55" fill="none" xmlns="http://www.w3.org/2000/svg">
<path d="M25.208 20.625C25.208 24.4291 22.1372 27.5 18.333 27.5C14.5288 27.5 11.458 24.4291 11.458 20.625C11.458 16.8208 14.5288 13.75 18.333 13.75C22.1372 13.75 25.208 16.8208 25.208 20.625ZM32.083 45.8333H4.58301V41.25C4.58301 36.1854 10.7476 32.0833 18.333 32.0833C25.9184 32.0833 32.083 36.1854 32.083 41.25V45.8333ZM50.4163 27.5V32.0833H29.7913V27.5H50.4163ZM50.4163 18.3333V22.9166H29.7913V18.3333H50.4163ZM50.4163 9.16663V13.75H29.7913V9.16663H50.4163Z" fill="#6A80AE" fill-opacity="0.8"/>
</svg>
