<svg width="50" height="50" viewBox="0 0 50 50" fill="none" xmlns="http://www.w3.org/2000/svg">
<g clip-path="url(#clip0_282_815)">
<path d="M16.6667 18.7501C17.7717 18.7501 18.8315 19.1891 19.6129 19.9705C20.3943 20.7519 20.8333 21.8117 20.8333 22.9167C20.8333 24.0218 20.3943 25.0816 19.6129 25.863C18.8315 26.6444 17.7717 27.0834 16.6667 27.0834C15.5616 27.0834 14.5018 26.6444 13.7204 25.863C12.939 25.0816 12.5 24.0218 12.5 22.9167C12.5 21.8117 12.939 20.7519 13.7204 19.9705C14.5018 19.1891 15.5616 18.7501 16.6667 18.7501ZM25 35.4167H8.33333V33.3334C8.33333 30.5626 13.8958 29.1667 16.6667 29.1667C19.4375 29.1667 25 30.5626 25 33.3334V35.4167ZM41.6667 16.6667H29.1667V20.8334H41.6667V16.6667ZM41.6667 25.0001H29.1667V29.1667H41.6667V25.0001ZM41.6667 33.3334H29.1667V37.5001H41.6667V33.3334ZM45.8333 8.33341H29.1667V12.5001H45.8333V41.6667H4.16667V12.5001H20.8333V8.33341H4.16667C3.0616 8.33341 2.00179 8.7724 1.22039 9.5538C0.438987 10.3352 0 11.395 0 12.5001L0 41.6667C0 42.7718 0.438987 43.8316 1.22039 44.613C2.00179 45.3944 3.0616 45.8334 4.16667 45.8334H45.8333C46.9384 45.8334 47.9982 45.3944 48.7796 44.613C49.561 43.8316 50 42.7718 50 41.6667V12.5001C50 11.395 49.561 10.3352 48.7796 9.5538C47.9982 8.7724 46.9384 8.33341 45.8333 8.33341ZM27.0833 12.5001H22.9167V4.16675H27.0833V12.5001Z" fill="#6A80AE" fill-opacity="0.8"/>
</g>
<defs>
<clipPath id="clip0_282_815">
<rect width="50" height="50" fill="white"/>
</clipPath>
</defs>
</svg>
