<svg width="55" height="55" viewBox="0 0 55 55" fill="none" xmlns="http://www.w3.org/2000/svg">
<path d="M49.7295 30.5938L47.4378 32.8855L42.7399 28.1876L45.0316 25.8959C45.5128 25.4147 46.3149 25.4147 46.7962 25.8959L49.7295 28.8292C50.2107 29.3105 50.2107 30.1126 49.7295 30.5938ZM27.5003 43.4042L41.3878 29.5167L46.0857 34.2147L32.2212 48.1251H27.5003V43.4042ZM27.5003 32.0834C17.3712 32.0834 9.16699 36.1855 9.16699 41.2501V45.8334H22.917V41.5022L32.0837 32.3355C30.5712 32.1522 29.0357 32.0834 27.5003 32.0834ZM27.5003 9.16675C25.0692 9.16675 22.7376 10.1325 21.0185 11.8516C19.2994 13.5707 18.3337 15.9023 18.3337 18.3334C18.3337 20.7646 19.2994 23.0961 21.0185 24.8152C22.7376 26.5343 25.0692 27.5001 27.5003 27.5001C29.9315 27.5001 32.2631 26.5343 33.9821 24.8152C35.7012 23.0961 36.667 20.7646 36.667 18.3334C36.667 15.9023 35.7012 13.5707 33.9821 11.8516C32.2631 10.1325 29.9315 9.16675 27.5003 9.16675Z" fill="#6A80AE" fill-opacity="0.8"/>
</svg>
