<svg width="55" height="55" viewBox="0 0 55 55" fill="none" xmlns="http://www.w3.org/2000/svg">
<path d="M32.0837 4.58337L45.8337 18.3334V45.8334C45.8337 47.049 45.3508 48.2147 44.4912 49.0743C43.6317 49.9338 42.4659 50.4167 41.2503 50.4167H13.7503C12.5347 50.4167 11.369 49.9338 10.5094 49.0743C9.64988 48.2147 9.16699 47.049 9.16699 45.8334V9.16671C9.16699 7.95113 9.64988 6.78534 10.5094 5.9258C11.369 5.06626 12.5347 4.58337 13.7503 4.58337H32.0837ZM41.2503 45.8334V20.625H29.792V9.16671H13.7503V45.8334H41.2503ZM25.667 42.3042L19.3649 35.4292L22.0232 32.7709L25.667 36.3917L33.8712 28.1875L36.5524 31.4188L25.667 42.3042Z" fill="#6A80AE" fill-opacity="0.8"/>
</svg>
