<svg width="50" height="54" viewBox="0 0 50 54" fill="none" xmlns="http://www.w3.org/2000/svg">
<path d="M12.4997 4.5C11.3946 4.5 10.3348 4.97411 9.5534 5.81802C8.77199 6.66193 8.33301 7.80653 8.33301 9V45C8.33301 46.1935 8.77199 47.3381 9.5534 48.182C10.3348 49.0259 11.3946 49.5 12.4997 49.5H37.4997C38.6047 49.5 39.6646 49.0259 40.446 48.182C41.2274 47.3381 41.6663 46.1935 41.6663 45V18L29.1663 4.5H12.4997ZM12.4997 9H27.083V20.25H37.4997V45H12.4997V9ZM16.6663 27V31.5H33.333V27H16.6663ZM16.6663 36V40.5H27.083V36H16.6663Z" fill="#6A80AE" fill-opacity="0.8"/>
</svg>
