<svg width="55" height="55" viewBox="0 0 55 55" fill="none" xmlns="http://www.w3.org/2000/svg">
<path d="M48.3542 28.6458L51.5625 31.877L36.5979 46.9791L28.6458 38.9583L31.8542 35.727L36.5979 40.4937L48.3542 28.6458ZM22.9167 38.9583L29.7917 45.8333H6.875V41.25C6.875 36.1854 15.0792 32.0833 25.2083 32.0833L29.5396 32.3354L22.9167 38.9583ZM25.2083 9.16663C27.6395 9.16663 29.9711 10.1324 31.6901 11.8515C33.4092 13.5706 34.375 15.9021 34.375 18.3333C34.375 20.7644 33.4092 23.096 31.6901 24.8151C29.9711 26.5342 27.6395 27.5 25.2083 27.5C22.7772 27.5 20.4456 26.5342 18.7265 24.8151C17.0074 23.096 16.0417 20.7644 16.0417 18.3333C16.0417 15.9021 17.0074 13.5706 18.7265 11.8515C20.4456 10.1324 22.7772 9.16663 25.2083 9.16663Z" fill="#6A80AE" fill-opacity="0.8"/>
</svg>
