<svg width="55" height="55" viewBox="0 0 55 55" fill="none" xmlns="http://www.w3.org/2000/svg">
<path d="M18.3337 27.5H36.667V32.0834H18.3337V27.5ZM22.917 45.8334H13.7503V9.16671H29.792V20.625H41.2503V27.7292L45.8337 23.1459V18.3334L32.0837 4.58337H13.7503C12.5347 4.58337 11.369 5.06626 10.5094 5.9258C9.64988 6.78534 9.16699 7.95113 9.16699 9.16671V45.8334C9.16699 47.049 9.64988 48.2147 10.5094 49.0743C11.369 49.9338 12.5347 50.4167 13.7503 50.4167H22.917V45.8334ZM18.3337 41.25H27.7295L29.792 39.1875V36.6667H18.3337V41.25ZM46.292 29.7917C46.5212 29.7917 46.9795 30.0209 47.2087 30.25L50.1878 33.2292C50.6462 33.6875 50.6462 34.6042 50.1878 35.0625L47.8962 37.3542L43.0837 32.5417L45.3753 30.25C45.6045 30.0209 45.8337 29.7917 46.292 29.7917ZM46.292 38.7292L32.3128 52.7084H27.5003V47.8959L41.4795 33.9167L46.292 38.7292Z" fill="#6A80AE" fill-opacity="0.8"/>
</svg>
