<svg width="55" height="55" viewBox="0 0 55 55" fill="none" xmlns="http://www.w3.org/2000/svg">
<path d="M36.346 10.0605V44.4355C36.346 48.2625 38.9585 50.4167 41.8231 50.4167C44.4356 50.4167 47.3002 48.6063 47.3002 44.4355V10.3125C47.3002 6.78337 44.6877 4.58337 41.8231 4.58337C38.9585 4.58337 36.346 7.01254 36.346 10.0605ZM22.0231 27.5V44.4355C22.0231 48.2855 24.6814 50.4167 27.5002 50.4167C30.1127 50.4167 32.9773 48.6063 32.9773 44.4355V27.7521C32.9773 24.223 30.3648 22.023 27.5002 22.023C24.6356 22.023 22.0231 24.4521 22.0231 27.5ZM13.1773 39.4855C16.2023 39.4855 18.6544 41.9375 18.6544 44.9396C18.6544 47.9646 16.2023 50.4167 13.1773 50.4167C10.1523 50.4167 7.7002 47.9646 7.7002 44.9396C7.7002 41.9375 10.1523 39.4855 13.1773 39.4855Z" fill="white"/>
</svg>
